<svg width="196" height="110" viewBox="0 0 196 110" fill="none" xmlns="http://www.w3.org/2000/svg">
<path d="M5.73698 64.6119C5.24649 64.358 4.64309 64.5499 4.38924 65.0404C4.13539 65.5309 4.32722 66.1343 4.81771 66.3881L5.73698 64.6119ZM61.8177 95.8881C62.3082 96.142 62.9116 95.9501 63.1655 95.4596C63.4193 94.9691 63.2275 94.3657 62.737 94.1119L61.8177 95.8881ZM4.81771 66.3881L61.8177 95.8881L62.737 94.1119L5.73698 64.6119L4.81771 66.3881Z" fill="#231F20"/>
<path d="M5.73698 78.1119C5.24649 77.858 4.64309 78.0499 4.38924 78.5404C4.13539 79.0309 4.32722 79.6343 4.81771 79.8881L5.73698 78.1119ZM61.8177 109.388C62.3082 109.642 62.9116 109.45 63.1655 108.96C63.4193 108.469 63.2275 107.866 62.737 107.612L61.8177 109.388ZM4.81771 79.8881L61.8177 109.388L62.737 107.612L5.73698 78.1119L4.81771 79.8881Z" fill="#231F20"/>
<path d="M6.27734 65.9541C6.27736 65.4019 5.82967 64.9541 5.27738 64.9541C4.7251 64.9541 4.27736 65.4018 4.27734 65.9541L6.27734 65.9541ZM4.27687 79C4.27685 79.5522 4.72454 80 5.27683 80C5.82911 80 6.27685 79.5523 6.27687 79L4.27687 79ZM4.27734 65.9541L4.27687 79L6.27687 79L6.27734 65.9541L4.27734 65.9541Z" fill="#231F20"/>
<path d="M120.777 63.6992C120.777 63.1469 120.33 62.6992 119.777 62.6992C119.225 62.6992 118.777 63.1469 118.777 63.6992H120.777ZM118.777 77C118.777 77.5523 119.225 78 119.777 78C120.33 78 120.777 77.5523 120.777 77L118.777 77ZM118.777 63.6992L118.777 77L120.777 77L120.777 63.6992H118.777Z" fill="#231F20"/>
<path d="M63.2773 94.9536C63.2773 94.4013 62.8296 93.9536 62.2773 93.9536C61.7251 93.9536 61.2773 94.4013 61.2773 94.9536L63.2773 94.9536ZM61.2773 108.5C61.2773 109.052 61.7251 109.5 62.2773 109.5C62.8296 109.5 63.2773 109.052 63.2773 108.5L61.2773 108.5ZM61.2773 94.9536L61.2773 108.5L63.2773 108.5L63.2773 94.9536L61.2773 94.9536Z" fill="#231F20"/>
<path d="M63.237 33.1119C62.7465 32.858 62.1431 33.0499 61.8892 33.5404C61.6354 34.0309 61.8272 34.6343 62.3177 34.8881L63.237 33.1119ZM119.318 64.3881C119.808 64.642 120.412 64.4501 120.665 63.9596C120.919 63.4691 120.727 62.8657 120.237 62.6119L119.318 64.3881ZM62.3177 34.8881L119.318 64.3881L120.237 62.6119L63.237 33.1119L62.3177 34.8881Z" fill="#231F20"/>
<path d="M120.252 64.8802C120.738 64.6181 120.92 64.0116 120.658 63.5254C120.395 63.0393 119.789 62.8577 119.303 63.1198L120.252 64.8802ZM61.8028 94.1198C61.3167 94.3819 61.135 94.9884 61.3971 95.4746C61.6592 95.9607 62.2658 96.1423 62.7519 95.8802L61.8028 94.1198ZM119.303 63.1198L61.8028 94.1198L62.7519 95.8802L120.252 64.8802L119.303 63.1198Z" fill="#231F20"/>
<path d="M120.258 77.877C120.742 77.6117 120.92 77.0039 120.654 76.5195C120.389 76.0352 119.781 75.8576 119.297 76.123L120.258 77.877ZM61.7969 107.623C61.3125 107.888 61.135 108.496 61.4003 108.98C61.6657 109.465 62.2734 109.642 62.7578 109.377L61.7969 107.623ZM119.297 76.123L61.7969 107.623L62.7578 109.377L120.258 77.877L119.297 76.123Z" fill="#231F20"/>
<path d="M63.2519 34.8802C63.738 34.6181 63.9197 34.0116 63.6576 33.5254C63.3955 33.0393 62.7889 32.8577 62.3028 33.1198L63.2519 34.8802ZM4.80279 64.1198C4.31665 64.3819 4.13503 64.9884 4.39712 65.4746C4.65921 65.9607 5.26576 66.1423 5.7519 65.8802L4.80279 64.1198ZM62.3028 33.1198L4.80279 64.1198L5.7519 65.8802L63.2519 34.8802L62.3028 33.1198Z" fill="#231F20"/>
<circle cx="62.1875" cy="31" r="31" fill="#E4704B"/>
<path d="M68.2775 37.45C68.7575 37.45 69.1175 37.56 69.3575 37.78C69.6175 38 69.7475 38.31 69.7475 38.71C69.7475 39.57 69.2575 40 68.2775 40H56.6975C56.2575 40 55.9075 39.88 55.6475 39.64C55.4075 39.38 55.2875 39.06 55.2875 38.68C55.2875 38.22 55.4675 37.8 55.8275 37.42L62.8775 29.71C63.8175 28.69 64.4975 27.76 64.9175 26.92C65.3375 26.08 65.5475 25.25 65.5475 24.43C65.5475 23.37 65.2375 22.56 64.6175 22C64.0175 21.42 63.1575 21.13 62.0375 21.13C60.3375 21.13 58.6475 21.78 56.9675 23.08C56.7475 23.22 56.5575 23.33 56.3975 23.41C56.2575 23.47 56.1075 23.5 55.9475 23.5C55.6675 23.5 55.4275 23.37 55.2275 23.11C55.0275 22.85 54.9275 22.54 54.9275 22.18C54.9275 21.68 55.1275 21.28 55.5275 20.98C56.3675 20.26 57.3775 19.69 58.5575 19.27C59.7375 18.83 60.9275 18.61 62.1275 18.61C64.1075 18.61 65.6775 19.12 66.8375 20.14C68.0175 21.14 68.6075 22.5 68.6075 24.22C68.6075 25.44 68.3375 26.6 67.7975 27.7C67.2775 28.8 66.3975 30.03 65.1575 31.39L59.4875 37.45H68.2775Z" fill="white"/>
<path d="M118.866 25.06C119.346 25.06 119.726 25.19 120.006 25.45C120.286 25.71 120.426 26.07 120.426 26.53V38.77C120.426 39.17 120.296 39.5 120.036 39.76C119.776 40.02 119.436 40.15 119.016 40.15C118.616 40.15 118.276 40.02 117.996 39.76C117.736 39.5 117.606 39.16 117.606 38.74L117.636 30.07L114.006 36.76C113.866 37.02 113.676 37.23 113.436 37.39C113.196 37.53 112.936 37.6 112.656 37.6C112.356 37.6 112.086 37.53 111.846 37.39C111.606 37.23 111.416 37.02 111.276 36.76L107.646 30.07L107.676 38.74C107.676 39.16 107.536 39.5 107.256 39.76C106.996 40.02 106.666 40.15 106.266 40.15C105.846 40.15 105.506 40.02 105.246 39.76C104.986 39.5 104.856 39.17 104.856 38.77V26.62C104.856 26.16 104.986 25.79 105.246 25.51C105.526 25.21 105.886 25.06 106.326 25.06C106.726 25.06 107.066 25.13 107.346 25.27C107.646 25.41 107.896 25.69 108.096 26.11L112.656 34.69L117.096 26.26C117.336 25.82 117.586 25.51 117.846 25.33C118.106 25.15 118.446 25.06 118.866 25.06ZM138.525 25.06C139.005 25.06 139.385 25.19 139.665 25.45C139.945 25.71 140.085 26.07 140.085 26.53V38.77C140.085 39.17 139.955 39.5 139.695 39.76C139.435 40.02 139.095 40.15 138.675 40.15C138.275 40.15 137.935 40.02 137.655 39.76C137.395 39.5 137.265 39.16 137.265 38.74L137.295 30.07L133.665 36.76C133.525 37.02 133.335 37.23 133.095 37.39C132.855 37.53 132.595 37.6 132.315 37.6C132.015 37.6 131.745 37.53 131.505 37.39C131.265 37.23 131.075 37.02 130.935 36.76L127.305 30.07L127.335 38.74C127.335 39.16 127.195 39.5 126.915 39.76C126.655 40.02 126.325 40.15 125.925 40.15C125.505 40.15 125.165 40.02 124.905 39.76C124.645 39.5 124.515 39.17 124.515 38.77V26.62C124.515 26.16 124.645 25.79 124.905 25.51C125.185 25.21 125.545 25.06 125.985 25.06C126.385 25.06 126.725 25.13 127.005 25.27C127.305 25.41 127.555 25.69 127.755 26.11L132.315 34.69L136.755 26.26C136.995 25.82 137.245 25.51 137.505 25.33C137.765 25.15 138.105 25.06 138.525 25.06Z" fill="#231F20"/>
</svg>
