<svg id="Layer_1" data-name="Layer 1" xmlns="http://www.w3.org/2000/svg" viewBox="0 0 67 55.68"><defs><style>.cls-1{fill:#231f20;}</style></defs><path class="cls-1" d="M56.92,3.24C50.65,1.15,42.34,0,33.5,0S16.35,1.15,10.08,3.24C3.58,5.41,0,8.38,0,11.62v4.1C0,19,3.58,21.94,10.08,24.11a73.49,73.49,0,0,0,20,3.18v18c-5.54.47-10.94,2.2-10.94,5.1,0,3.41,7.4,5.25,14.36,5.25s14.36-1.84,14.36-5.25c0-2.9-5.39-4.63-10.94-5.1v-18a73.49,73.49,0,0,0,20-3.18C63.42,21.94,67,19,67,15.72v-4.1C67,8.38,63.42,5.41,56.92,3.24Zm-20.69,46a.69.69,0,0,0,.69-.68V46.71c5.93.52,9.57,2.3,9.57,3.72,0,1.83-5.56,3.87-13,3.87s-13-2-13-3.87c0-1.42,3.64-3.2,9.57-3.72v1.83c0,1.17,1.84,1.59,3.42,1.59a.68.68,0,0,0,.69-.68.69.69,0,0,0-.69-.69,4.31,4.31,0,0,1-2.05-.38V27.32c.68,0,1.36,0,2.05,0s1.37,0,2,0V48.54A.69.69,0,0,0,36.23,49.22Zm29.4-33.5c0,2.56-3.34,5.15-9.14,7.08C50.36,24.85,42.19,26,33.5,26s-16.86-1.12-23-3.17c-5.8-1.93-9.14-4.52-9.14-7.08V15c1.6,1.9,4.56,3.62,8.71,5,6.27,2.09,14.58,3.24,23.42,3.24,11.72,0,22.36-2,28.46-5.39a.69.69,0,0,0,.27-.93.7.7,0,0,0-.94-.27c-5.81,3.22-16.46,5.22-27.79,5.22-8.69,0-16.86-1.13-23-3.17-5.8-1.94-9.14-4.52-9.14-7.09s3.34-5.14,9.14-7.08c6.13-2,14.3-3.17,23-3.17s16.86,1.13,23,3.17c5.8,1.94,9.14,4.52,9.14,7.08a4.18,4.18,0,0,1-1.29,2.79.68.68,0,0,0,0,1,.69.69,0,0,0,1,0l.29-.33Z"/><path class="cls-1" d="M61,17a.54.54,0,0,0-.2.75.55.55,0,0,0,.75.2Zm.55,1,.52-.31-.56-.95L61,17Zm3.94-2.83.78-.71-.75-.81-.77.7ZM62,17.61a20.11,20.11,0,0,0,3.42-2.52l-.74-.82a19,19,0,0,1-3.24,2.39Z"/><path class="cls-1" d="M30.9,48.16a.55.55,0,1,0-.57.94Zm5.77.94a.55.55,0,0,0-.56-.94Zm-6.34,0,.32.19.56-.94-.31-.19Zm6,.19.31-.19-.56-.94-.32.19Zm-5.71,0a5.52,5.52,0,0,0,5.71,0l-.57-.94a4.48,4.48,0,0,1-4.58,0Z"/></svg>