<svg id="Layer_1" data-name="Layer 1" xmlns="http://www.w3.org/2000/svg" viewBox="0 0 66.39 54.73"><defs><style>.cls-1{fill:#231f20;}</style></defs><path class="cls-1" d="M66.37,18.12,61.24.4,60.7.56h0L61.24.4A.56.56,0,0,0,60.7,0H6.92a.56.56,0,0,0-.53.37l.53.19h0L6.39.37,0,18.09a.58.58,0,0,0,0,.19v6.06a.57.57,0,0,0,.56.56l3.64,0V54.17a.56.56,0,0,0,.56.56H9.88a.56.56,0,0,0,.56-.56V30.49H57.11V54.17a.56.56,0,0,0,.56.56h4.9a.56.56,0,0,0,.56-.56V25.34l2.7,0a.57.57,0,0,0,.39-.16.56.56,0,0,0,.17-.4V18.28A.78.78,0,0,0,66.37,18.12Zm-65.25.72H65.27v5.4L1.12,23.78ZM7.31,1.12h53l4.81,16.6H1.35ZM62,53.61H58.23V29.93a.56.56,0,0,0-.56-.56H9.88a.56.56,0,0,0-.56.56V53.61h-4V24.93l56.7.4Z"/></svg>