<svg id="Layer_1" data-name="Layer 1" xmlns="http://www.w3.org/2000/svg" xmlns:xlink="http://www.w3.org/1999/xlink" viewBox="0 0 54 54"><defs><style>.cls-1{fill:none;}.cls-2{clip-path:url(#clip-path);}.cls-3{fill:#231f20;stroke:#f8f8f8;stroke-width:0.3px;}</style><clipPath id="clip-path"><rect class="cls-1" width="54" height="54"/></clipPath></defs><g class="cls-2"><path class="cls-3" d="M11.36,4.55l.06.17.16-.09A34.34,34.34,0,0,1,27,.15,26.86,26.86,0,0,1,46,46,26.85,26.85,0,0,1,.15,27,1.43,1.43,0,0,1,3,27,24,24,0,1,0,27,3,31,31,0,0,0,13.93,6.37l-.27.15.28.12,3.57,1.52A1.45,1.45,0,0,1,17.8,9.7l.13.06L17.8,9.7a1.44,1.44,0,0,1-1.33.88H8.9A1.43,1.43,0,0,1,7.47,9.15V1.58a1.43,1.43,0,0,1,2.42-1Z"/><path class="cls-3" d="M28.43,25.42v.15h8.74a1.43,1.43,0,0,1,0,2.86H27A1.43,1.43,0,0,1,25.57,27V16.83a1.43,1.43,0,0,1,2.86,0Z"/></g></svg>