<svg width="43" height="49" viewBox="0 0 43 49" fill="none" xmlns="http://www.w3.org/2000/svg">
<path d="M11.3968 15.6973L11.3453 15.7788L4.2118 27.0718L11.3968 15.6973ZM11.3968 15.6973L11.3282 15.6294M11.3968 15.6973L11.3282 15.6294M11.3282 15.6294L1.31287 5.72042C1.10385 5.50584 0.988466 5.21894 0.991139 4.92144C0.993816 4.62361 1.11461 4.33846 1.32792 4.12751C1.54127 3.91651 1.83011 3.79663 2.13231 3.79409C2.43416 3.79156 2.72471 3.90631 2.94159 4.11327L12.5423 13.6106L12.6484 13.7155L12.7281 13.5894L20.8995 0.655121L20.798 0.591028M11.3282 15.6294L20.798 0.591028M20.798 0.591028L20.8995 0.655116C21.0318 0.44568 21.2296 0.284307 21.4631 0.195647C21.6967 0.10698 21.9531 0.0959372 22.1936 0.164217C22.4341 0.232494 22.6454 0.376302 22.7956 0.573642C22.9458 0.77096 23.0269 1.01112 23.0268 1.25782V1.25786V19.8163V19.9363H23.1468H38.5635C38.7689 19.9364 38.9704 19.9908 39.1472 20.0938C39.3241 20.1967 39.4697 20.3445 39.5692 20.5216C39.6687 20.6987 39.7186 20.8988 39.7136 21.1012C39.7087 21.3036 39.6492 21.5011 39.5412 21.6733C39.5412 21.6733 39.5412 21.6733 39.5412 21.6733L32.3684 33.0985L32.3173 33.18L32.3857 33.2476L42.4396 43.1904C42.5464 43.2961 42.6311 43.4215 42.6888 43.5595C42.7465 43.6974 42.7762 43.8452 42.7762 43.9944C42.7762 44.1436 42.7465 44.2914 42.6888 44.4293C42.6311 44.5672 42.5464 44.6926 42.4396 44.7983C42.3327 44.904 42.2058 44.9879 42.0661 45.0452C41.9263 45.1024 41.7765 45.1319 41.6252 45.1319C41.4739 45.1319 41.324 45.1024 41.1843 45.0452C41.0445 44.9879 40.9176 44.904 40.8108 44.7983L40.7264 44.8836L40.8108 44.7983L31.1738 35.2672L31.0673 35.1619L30.9878 35.2887L22.8534 48.2517L22.8534 48.2518C22.7504 48.4161 22.6066 48.5519 22.4355 48.6461C22.2645 48.7403 22.0718 48.7898 21.8759 48.7897H21.8756C21.7688 48.79 21.6626 48.7753 21.56 48.7462L21.5598 48.7461C21.3189 48.6781 21.1073 48.5344 20.9567 48.337C20.8061 48.1396 20.7248 47.8992 20.7248 47.6522V28.9321V28.8121H20.6048H5.1882C4.98252 28.8119 4.7807 28.7573 4.60368 28.654C4.42667 28.5508 4.28096 28.4026 4.18153 28.2251C4.08211 28.0476 4.03253 27.8471 4.03785 27.6444C4.04317 27.4417 4.10317 27.244 4.21176 27.0718L20.798 0.591028ZM7.38023 26.353L7.26398 26.5371H7.48169H21.8748C21.9372 26.5383 21.9995 26.5444 22.061 26.5553L22.4408 26.6233L22.1665 26.3519L13.1722 17.4546L13.0661 17.3496L12.9864 17.4758L7.38023 26.353ZM23.0268 43.2445V43.6614L23.2485 43.3083L29.3492 33.5904L29.4003 33.509L29.332 33.4413L23.2102 27.3852L22.9348 27.1128L23.0079 27.4932C23.0195 27.5533 23.0258 27.6143 23.0268 27.6755V43.2445ZM36.3789 22.3915L36.4942 22.2077H36.2772H21.876C21.7413 22.2068 21.6079 22.1823 21.4819 22.1355L21.3557 22.3333L30.5402 31.4181L30.6466 31.5234L30.7262 31.3966L36.3789 22.3915ZM20.7248 5.64113V5.22643L20.5034 5.57705L14.37 15.2878L14.3184 15.3693L14.387 15.4372L20.6011 21.5852L20.7977 21.4575C20.7506 21.3329 20.7259 21.2013 20.7248 21.0684V5.64113Z" fill="#231F20" stroke="#EDEDED" stroke-width="0.24"/>
</svg>
