<svg width="65" height="64" viewBox="0 0 65 64" fill="none" xmlns="http://www.w3.org/2000/svg">
<g clip-path="url(#clip0)">
<path d="M47.2441 46.7074L38.3881 25.3503C37.897 24.1655 37.6477 22.9155 37.6477 21.6349V15.9896C37.6477 15.3817 37.8871 14.8101 38.3216 14.3802C38.8514 13.856 39.1434 13.159 39.1434 12.4177V11.6179C39.1434 11.1709 38.7769 10.8086 38.3254 10.8086H26.9049C26.4531 10.8086 26.087 11.1709 26.087 11.6179V12.4177C26.087 13.159 26.3787 13.856 26.9084 14.3802C27.343 14.8101 27.5823 15.3817 27.5823 15.9899V21.6349C27.5823 22.9155 27.3334 24.1655 26.842 25.3503L24.4085 31.2189C24.4076 31.2211 24.4066 31.2233 24.4057 31.2255L17.9859 46.7074C17.4718 47.9476 17.6153 49.3527 18.37 50.4658C19.1247 51.5792 20.3839 52.2437 21.7387 52.2437H43.4914C44.8461 52.2437 46.1057 51.5792 46.8604 50.4658C47.6147 49.3524 47.7582 47.9476 47.2441 46.7074ZM28.3555 25.9646C28.9281 24.5841 29.2182 23.1273 29.2182 21.6349V15.9896C29.2182 14.9495 28.8089 13.9714 28.0654 13.2358C27.8469 13.0196 27.7254 12.7325 27.7229 12.4272H37.5075C37.5049 12.7325 37.3835 13.0193 37.1646 13.2358C36.4214 13.9714 36.0118 14.9492 36.0118 15.9896V21.6346C36.0118 23.127 36.3022 24.5837 36.8745 25.9643L38.8494 30.727H26.3806L28.3555 25.9646ZM45.5015 49.5642C45.0446 50.2385 44.3119 50.6251 43.4914 50.6251H21.7387C20.9185 50.6251 20.1858 50.2385 19.7286 49.5642C19.3838 49.0556 19.2522 48.4657 19.3416 47.884H20.6894C21.1408 47.884 21.5073 47.5214 21.5073 47.0748C21.5073 46.6278 21.1408 46.2655 20.6894 46.2655H19.9379L20.8772 43.9995H22.2569C22.7087 43.9995 23.0749 43.6369 23.0749 43.1902C23.0749 42.7432 22.7087 42.3809 22.2569 42.3809H21.5485L22.4879 40.1149H23.9066C24.3584 40.1149 24.7245 39.7524 24.7245 39.3057C24.7245 38.8587 24.3584 38.4964 23.9066 38.4964H23.1592L24.0989 36.2304H25.5559C26.0077 36.2304 26.3739 35.8678 26.3739 35.4211C26.3739 34.9741 26.0077 34.6118 25.5559 34.6118H24.7699L25.7096 32.3459H39.5204L45.7306 47.322C46.0418 48.0728 45.9584 48.8903 45.5015 49.5642Z" fill="#231F20"/>
</g>
<path d="M32.5682 0C14.9695 0 0.703125 14.1149 0.703125 31.5267C0.703125 48.9385 14.9695 63.0534 32.5682 63.0534C50.1668 63.0534 64.4332 48.9385 64.4332 31.5267C64.4128 14.1233 50.1583 0.0202127 32.5682 0ZM12.1997 9.98024C17.7234 4.86923 25.0054 2.02839 32.5682 2.03398C40.1176 2.03042 47.385 4.87151 52.8929 9.97973L10.7899 51.6357C-0.446972 39.7477 0.184161 21.0979 12.1997 9.98024ZM52.9366 53.0732C47.4129 58.1842 40.131 61.0251 32.5682 61.0195C25.0187 61.023 17.7513 58.1819 12.2434 53.0737L54.3464 11.4178C65.5833 23.3057 64.9521 41.9556 52.9366 53.0732Z" fill="#231F20"/>
<defs>
<clipPath id="clip0">
<rect width="41.8798" height="41.4351" fill="white" transform="translate(11.6289 10.8086)"/>
</clipPath>
</defs>
</svg>
