<svg width="162" height="110" viewBox="0 0 162 110" fill="none" xmlns="http://www.w3.org/2000/svg">
<path d="M5.11003 73.1119C4.61954 72.858 4.01613 73.0499 3.76228 73.5404C3.50843 74.0309 3.70027 74.6343 4.19076 74.8881L5.11003 73.1119ZM61.1908 104.388C61.6812 104.642 62.2846 104.45 62.5385 103.96C62.7923 103.469 62.6005 102.866 62.11 102.612L61.1908 104.388ZM4.19076 74.8881L61.1908 104.388L62.11 102.612L5.11003 73.1119L4.19076 74.8881Z" fill="#231F20"/>
<path d="M5.11003 78.1119C4.61954 77.858 4.01613 78.0499 3.76228 78.5404C3.50843 79.0309 3.70027 79.6343 4.19076 79.8881L5.11003 78.1119ZM61.1908 109.388C61.6812 109.642 62.2846 109.45 62.5385 108.96C62.7923 108.469 62.6005 107.866 62.11 107.612L61.1908 109.388ZM4.19076 79.8881L61.1908 109.388L62.11 107.612L5.11003 78.1119L4.19076 79.8881Z" fill="#231F20"/>
<path d="M5.86422 73.7025C5.86422 73.3208 5.32077 72.9123 4.65039 72.7902C3.98001 72.6682 3.43657 72.8786 3.43657 73.2604L5.86422 73.7025ZM3.43657 78.7789C3.43657 79.1606 3.98001 79.569 4.65039 79.6911C5.32077 79.8132 5.86422 79.6027 5.86422 79.221L3.43657 78.7789ZM3.43657 73.2604L3.43657 78.7789L5.86422 79.221L5.86422 73.7025L3.43657 73.2604Z" fill="#231F20"/>
<path d="M120.364 73.2211C120.364 72.8393 119.821 72.4309 119.15 72.3088C118.48 72.1867 117.937 72.3972 117.937 72.7789L120.364 73.2211ZM117.937 76.7912C117.937 77.173 118.48 77.5814 119.15 77.7035C119.821 77.8256 120.364 77.6151 120.364 77.2334L117.937 76.7912ZM117.937 72.7789L117.937 76.7912L120.364 77.2334L120.364 73.2211L117.937 72.7789Z" fill="#231F20"/>
<path d="M62.6504 102.771C62.6504 102.219 62.2027 101.771 61.6504 101.771C61.0981 101.771 60.6504 102.219 60.6504 102.771H62.6504ZM60.6504 108.5C60.6504 109.052 61.0981 109.5 61.6504 109.5C62.2027 109.5 62.6504 109.052 62.6504 108.5L60.6504 108.5ZM60.6504 102.771L60.6504 108.5L62.6504 108.5L62.6504 102.771H60.6504Z" fill="#231F20"/>
<path d="M62.61 42.1119C62.1195 41.858 61.5161 42.0499 61.2623 42.5404C61.0084 43.0309 61.2003 43.6343 61.6908 43.8881L62.61 42.1119ZM118.691 73.3881C119.181 73.642 119.785 73.4501 120.038 72.9596C120.292 72.4691 120.101 71.8657 119.61 71.6119L118.691 73.3881ZM61.6908 43.8881L118.691 73.3881L119.61 71.6119L62.61 42.1119L61.6908 43.8881Z" fill="#231F20"/>
<path d="M119.625 73.3802C120.111 73.1181 120.293 72.5116 120.031 72.0254C119.769 71.5393 119.162 71.3577 118.676 71.6198L119.625 73.3802ZM61.1758 102.62C60.6897 102.882 60.5081 103.488 60.7702 103.975C61.0323 104.461 61.6388 104.642 62.1249 104.38L61.1758 102.62ZM118.676 71.6198L61.1758 102.62L62.1249 104.38L119.625 73.3802L118.676 71.6198Z" fill="#231F20"/>
<path d="M119.631 77.877C120.115 77.6117 120.293 77.0039 120.027 76.5195C119.762 76.0352 119.154 75.8576 118.67 76.123L119.631 77.877ZM61.1699 107.623C60.6856 107.888 60.508 108.496 60.7734 108.98C61.0387 109.465 61.6465 109.642 62.1308 109.377L61.1699 107.623ZM118.67 76.123L61.1699 107.623L62.1308 109.377L119.631 77.877L118.67 76.123Z" fill="#231F20"/>
<path d="M62.6249 43.8802C63.1111 43.6181 63.2927 43.0116 63.0306 42.5254C62.7685 42.0393 62.162 41.8577 61.6758 42.1198L62.6249 43.8802ZM4.17583 73.1198C3.6897 73.3819 3.50808 73.9884 3.77017 74.4746C4.03226 74.9607 4.63881 75.1423 5.12495 74.8802L4.17583 73.1198ZM61.6758 42.1198L4.17583 73.1198L5.12495 74.8802L62.6249 43.8802L61.6758 42.1198Z" fill="#231F20"/>
<circle cx="62.2012" cy="31" r="31" fill="#E4704B"/>
<path d="M68.0812 38.45C68.5612 38.45 68.9212 38.56 69.1612 38.78C69.4012 39 69.5212 39.31 69.5212 39.71C69.5212 40.57 69.0412 41 68.0812 41H58.0612C57.0812 41 56.5912 40.57 56.5912 39.71C56.5912 39.31 56.7112 39 56.9512 38.78C57.2112 38.56 57.5812 38.45 58.0612 38.45H61.5112V23.48L58.4212 25.43C58.2212 25.55 58.0212 25.61 57.8212 25.61C57.4812 25.61 57.1812 25.46 56.9212 25.16C56.6812 24.86 56.5612 24.52 56.5612 24.14C56.5612 23.68 56.7612 23.32 57.1612 23.06L61.7812 20.12C62.2412 19.84 62.6812 19.7 63.1012 19.7C63.5412 19.7 63.9012 19.84 64.1812 20.12C64.4612 20.4 64.6012 20.78 64.6012 21.26V38.45H68.0812Z" fill="white"/>
<path d="M118.88 26.06C119.36 26.06 119.74 26.19 120.02 26.45C120.3 26.71 120.44 27.07 120.44 27.53V39.77C120.44 40.17 120.31 40.5 120.05 40.76C119.79 41.02 119.45 41.15 119.03 41.15C118.63 41.15 118.29 41.02 118.01 40.76C117.75 40.5 117.62 40.16 117.62 39.74L117.65 31.07L114.02 37.76C113.88 38.02 113.69 38.23 113.45 38.39C113.21 38.53 112.95 38.6 112.67 38.6C112.37 38.6 112.1 38.53 111.86 38.39C111.62 38.23 111.43 38.02 111.29 37.76L107.66 31.07L107.69 39.74C107.69 40.16 107.55 40.5 107.27 40.76C107.01 41.02 106.68 41.15 106.28 41.15C105.86 41.15 105.52 41.02 105.26 40.76C105 40.5 104.87 40.17 104.87 39.77V27.62C104.87 27.16 105 26.79 105.26 26.51C105.54 26.21 105.9 26.06 106.34 26.06C106.74 26.06 107.08 26.13 107.36 26.27C107.66 26.41 107.91 26.69 108.11 27.11L112.67 35.69L117.11 27.26C117.35 26.82 117.6 26.51 117.86 26.33C118.12 26.15 118.46 26.06 118.88 26.06ZM138.538 26.06C139.018 26.06 139.398 26.19 139.678 26.45C139.958 26.71 140.098 27.07 140.098 27.53V39.77C140.098 40.17 139.968 40.5 139.708 40.76C139.448 41.02 139.108 41.15 138.688 41.15C138.288 41.15 137.948 41.02 137.668 40.76C137.408 40.5 137.278 40.16 137.278 39.74L137.308 31.07L133.678 37.76C133.538 38.02 133.348 38.23 133.108 38.39C132.868 38.53 132.608 38.6 132.328 38.6C132.028 38.6 131.758 38.53 131.518 38.39C131.278 38.23 131.088 38.02 130.948 37.76L127.318 31.07L127.348 39.74C127.348 40.16 127.208 40.5 126.928 40.76C126.668 41.02 126.338 41.15 125.938 41.15C125.518 41.15 125.178 41.02 124.918 40.76C124.658 40.5 124.528 40.17 124.528 39.77V27.62C124.528 27.16 124.658 26.79 124.918 26.51C125.198 26.21 125.558 26.06 125.998 26.06C126.398 26.06 126.738 26.13 127.018 26.27C127.318 26.41 127.568 26.69 127.768 27.11L132.328 35.69L136.768 27.26C137.008 26.82 137.258 26.51 137.518 26.33C137.778 26.15 138.118 26.06 138.538 26.06Z" fill="#231F20"/>
</svg>
