<svg width="182" height="110" viewBox="0 0 182 110" fill="none" xmlns="http://www.w3.org/2000/svg">
<path d="M3.70768 69.6119C3.21719 69.358 2.61379 69.5499 2.35994 70.0404C2.10609 70.5309 2.29792 71.1343 2.78841 71.3881L3.70768 69.6119ZM59.7884 100.888C60.2789 101.142 60.8823 100.95 61.1362 100.46C61.39 99.9691 61.1982 99.3657 60.7077 99.1119L59.7884 100.888ZM2.78841 71.3881L59.7884 100.888L60.7077 99.1119L3.70768 69.6119L2.78841 71.3881Z" fill="#231F20"/>
<path d="M3.70768 78.1119C3.21719 77.858 2.61379 78.0499 2.35994 78.5404C2.10609 79.0309 2.29792 79.6343 2.78841 79.8881L3.70768 78.1119ZM59.7884 109.388C60.2789 109.642 60.8823 109.45 61.1362 108.96C61.39 108.469 61.1982 107.866 60.7077 107.612L59.7884 109.388ZM2.78841 79.8881L59.7884 109.388L60.7077 107.612L3.70768 78.1119L2.78841 79.8881Z" fill="#231F20"/>
<path d="M4.25 70.9658C4.24998 70.4135 3.80225 69.9658 3.24997 69.9658C2.69768 69.9658 2.24998 70.4136 2.25 70.9659L4.25 70.9658ZM2.25026 79.0001C2.25028 79.5523 2.69801 80 3.25029 80C3.80258 80 4.25028 79.5523 4.25026 79L2.25026 79.0001ZM2.25 70.9659L2.25026 79.0001L4.25026 79L4.25 70.9658L2.25 70.9659Z" fill="#231F20"/>
<path d="M118.75 69.1499C118.75 68.5976 118.302 68.1499 117.75 68.1499C117.198 68.1499 116.75 68.5976 116.75 69.1499L118.75 69.1499ZM116.75 76.9999C116.75 77.5522 117.198 77.9999 117.75 77.9999C118.302 77.9999 118.75 77.5522 118.75 76.9999L116.75 76.9999ZM116.75 69.1499L116.75 76.9999L118.75 76.9999L118.75 69.1499L116.75 69.1499Z" fill="#231F20"/>
<path d="M61.25 99.9658C61.25 99.4135 60.8023 98.9658 60.25 98.9658C59.6977 98.9658 59.25 99.4135 59.25 99.9658H61.25ZM59.25 108.5C59.25 109.052 59.6977 109.5 60.25 109.5C60.8023 109.5 61.25 109.052 61.25 108.5L59.25 108.5ZM59.25 99.9658L59.25 108.5L61.25 108.5L61.25 99.9658H59.25Z" fill="#231F20"/>
<path d="M61.2096 38.1119C60.7191 37.858 60.1157 38.0499 59.8619 38.5404C59.608 39.0309 59.7999 39.6343 60.2904 39.8881L61.2096 38.1119ZM117.29 69.3881C117.781 69.642 118.384 69.4501 118.638 68.9596C118.892 68.4691 118.7 67.8657 118.21 67.6119L117.29 69.3881ZM60.2904 39.8881L117.29 69.3881L118.21 67.6119L61.2096 38.1119L60.2904 39.8881Z" fill="#231F20"/>
<path d="M118.223 69.8802C118.709 69.6181 118.89 69.0116 118.628 68.5254C118.366 68.0393 117.76 67.8577 117.273 68.1198L118.223 69.8802ZM59.7735 99.1198C59.2874 99.3819 59.1057 99.9884 59.3678 100.475C59.6299 100.961 60.2365 101.142 60.7226 100.88L59.7735 99.1198ZM117.273 68.1198L59.7735 99.1198L60.7226 100.88L118.223 69.8802L117.273 68.1198Z" fill="#231F20"/>
<path d="M118.229 77.877C118.713 77.6117 118.89 77.0039 118.625 76.5195C118.36 76.0352 117.752 75.8576 117.268 76.123L118.229 77.877ZM59.7676 107.623C59.2832 107.888 59.1057 108.496 59.371 108.98C59.6364 109.465 60.2441 109.642 60.7285 109.377L59.7676 107.623ZM117.268 76.123L59.7676 107.623L60.7285 109.377L118.229 77.877L117.268 76.123Z" fill="#231F20"/>
<path d="M61.2246 39.8802C61.7107 39.6181 61.8923 39.0116 61.6302 38.5254C61.3681 38.0393 60.7616 37.8577 60.2754 38.1198L61.2246 39.8802ZM2.77544 69.1198C2.28931 69.3819 2.10768 69.9884 2.36977 70.4746C2.63186 70.9607 3.23842 71.1423 3.72456 70.8802L2.77544 69.1198ZM60.2754 38.1198L2.77544 69.1198L3.72456 70.8802L61.2246 39.8802L60.2754 38.1198Z" fill="#231F20"/>
<circle cx="60.1816" cy="31" r="31" fill="#E4704B"/>
<path d="M54.0616 38.45C54.5416 38.45 54.9016 38.56 55.1416 38.78C55.3816 39 55.5016 39.31 55.5016 39.71C55.5016 40.57 55.0216 41 54.0616 41H44.0416C43.0616 41 42.5716 40.57 42.5716 39.71C42.5716 39.31 42.6916 39 42.9316 38.78C43.1916 38.56 43.5616 38.45 44.0416 38.45H47.4916V23.48L44.4016 25.43C44.2016 25.55 44.0016 25.61 43.8016 25.61C43.4616 25.61 43.1616 25.46 42.9016 25.16C42.6616 24.86 42.5416 24.52 42.5416 24.14C42.5416 23.68 42.7416 23.32 43.1416 23.06L47.7616 20.12C48.2216 19.84 48.6616 19.7 49.0816 19.7C49.5216 19.7 49.8816 19.84 50.1616 20.12C50.4416 20.4 50.5816 20.78 50.5816 21.26V38.45H54.0616ZM60.6799 37.28C61.2799 37.28 61.7499 37.5 62.0899 37.94C62.4499 38.38 62.6299 39.03 62.6299 39.89C62.6299 41.59 62.0599 43.06 60.9199 44.3C60.6799 44.54 60.4199 44.66 60.1399 44.66C59.8799 44.66 59.6599 44.57 59.4799 44.39C59.2999 44.23 59.2099 44.03 59.2099 43.79C59.2099 43.59 59.2999 43.38 59.4799 43.16C60.0399 42.58 60.3999 41.89 60.5599 41.09C60.0599 41.05 59.6399 40.86 59.2999 40.52C58.9799 40.18 58.8199 39.75 58.8199 39.23C58.8199 38.67 58.9999 38.21 59.3599 37.85C59.7199 37.47 60.1599 37.28 60.6799 37.28ZM74.2784 27.62C75.5984 27.62 76.7584 27.9 77.7584 28.46C78.7784 29.02 79.5684 29.81 80.1284 30.83C80.6884 31.85 80.9684 33.02 80.9684 34.34C80.9684 35.68 80.6584 36.87 80.0384 37.91C79.4184 38.95 78.5484 39.76 77.4284 40.34C76.3284 40.92 75.0584 41.21 73.6184 41.21C72.3784 41.21 71.1584 41 69.9584 40.58C68.7784 40.16 67.7884 39.58 66.9884 38.84C66.5884 38.5 66.3884 38.1 66.3884 37.64C66.3884 37.28 66.4884 36.98 66.6884 36.74C66.8884 36.48 67.1284 36.35 67.4084 36.35C67.5884 36.35 67.7484 36.38 67.8884 36.44C68.0484 36.5 68.2284 36.6 68.4284 36.74C69.2484 37.38 70.0684 37.87 70.8884 38.21C71.7284 38.53 72.6084 38.69 73.5284 38.69C74.9284 38.69 76.0184 38.32 76.7984 37.58C77.5784 36.82 77.9684 35.76 77.9684 34.4C77.9684 33.1 77.5684 32.06 76.7684 31.28C75.9884 30.5 74.9384 30.11 73.6184 30.11C72.7584 30.11 71.9884 30.26 71.3084 30.56C70.6284 30.84 69.9884 31.29 69.3884 31.91C69.0884 32.19 68.7284 32.33 68.3084 32.33C67.9684 32.33 67.6784 32.23 67.4384 32.03C67.2184 31.81 67.1084 31.53 67.1084 31.19V21.32C67.1084 20.86 67.2284 20.5 67.4684 20.24C67.7284 19.98 68.0984 19.85 68.5784 19.85H78.8984C79.3584 19.85 79.7184 19.96 79.9784 20.18C80.2384 20.4 80.3684 20.7 80.3684 21.08C80.3684 21.48 80.2384 21.79 79.9784 22.01C79.7184 22.23 79.3584 22.34 78.8984 22.34H70.1684V29C71.2684 28.08 72.6384 27.62 74.2784 27.62Z" fill="white"/>
<path d="M129.997 26.06C130.477 26.06 130.857 26.19 131.137 26.45C131.417 26.71 131.557 27.07 131.557 27.53V39.77C131.557 40.17 131.427 40.5 131.167 40.76C130.907 41.02 130.567 41.15 130.147 41.15C129.747 41.15 129.407 41.02 129.127 40.76C128.867 40.5 128.737 40.16 128.737 39.74L128.767 31.07L125.137 37.76C124.997 38.02 124.807 38.23 124.567 38.39C124.327 38.53 124.067 38.6 123.787 38.6C123.487 38.6 123.217 38.53 122.977 38.39C122.737 38.23 122.547 38.02 122.407 37.76L118.777 31.07L118.807 39.74C118.807 40.16 118.667 40.5 118.387 40.76C118.127 41.02 117.797 41.15 117.397 41.15C116.977 41.15 116.637 41.02 116.377 40.76C116.117 40.5 115.987 40.17 115.987 39.77V27.62C115.987 27.16 116.117 26.79 116.377 26.51C116.657 26.21 117.017 26.06 117.457 26.06C117.857 26.06 118.197 26.13 118.477 26.27C118.777 26.41 119.027 26.69 119.227 27.11L123.787 35.69L128.227 27.26C128.467 26.82 128.717 26.51 128.977 26.33C129.237 26.15 129.577 26.06 129.997 26.06ZM149.655 26.06C150.135 26.06 150.515 26.19 150.795 26.45C151.075 26.71 151.215 27.07 151.215 27.53V39.77C151.215 40.17 151.085 40.5 150.825 40.76C150.565 41.02 150.225 41.15 149.805 41.15C149.405 41.15 149.065 41.02 148.785 40.76C148.525 40.5 148.395 40.16 148.395 39.74L148.425 31.07L144.795 37.76C144.655 38.02 144.465 38.23 144.225 38.39C143.985 38.53 143.725 38.6 143.445 38.6C143.145 38.6 142.875 38.53 142.635 38.39C142.395 38.23 142.205 38.02 142.065 37.76L138.435 31.07L138.465 39.74C138.465 40.16 138.325 40.5 138.045 40.76C137.785 41.02 137.455 41.15 137.055 41.15C136.635 41.15 136.295 41.02 136.035 40.76C135.775 40.5 135.645 40.17 135.645 39.77V27.62C135.645 27.16 135.775 26.79 136.035 26.51C136.315 26.21 136.675 26.06 137.115 26.06C137.515 26.06 137.855 26.13 138.135 26.27C138.435 26.41 138.685 26.69 138.885 27.11L143.445 35.69L147.885 27.26C148.125 26.82 148.375 26.51 148.635 26.33C148.895 26.15 149.235 26.06 149.655 26.06Z" fill="#231F20"/>
</svg>
