<svg width="91" height="92" viewBox="0 0 91 92" fill="none" xmlns="http://www.w3.org/2000/svg">
<g clip-path="url(#clip0)">
<path d="M88.4001 12.4522C87.0614 11.11 84.8893 11.1077 83.5506 12.4465L42.4063 53.5171L27.5616 37.3805C26.2789 35.987 24.1102 35.8966 22.7155 37.1802C21.3219 38.464 21.2327 40.6357 22.5154 42.0305L39.778 60.794C40.4102 61.4817 41.295 61.8811 42.2279 61.9005C42.253 61.9016 42.2771 61.9016 42.3011 61.9016C43.2077 61.9016 44.0799 61.5412 44.7224 60.9004L88.3933 17.3068C89.7354 15.9683 89.7377 13.7943 88.4001 12.4522Z" fill="#E4704B"/>
<path d="M87.5703 42.1061C85.676 42.1061 84.1407 43.6427 84.1407 45.5387C84.1407 66.8642 66.8073 84.2123 45.5 84.2123C24.1939 84.2123 6.8593 66.8642 6.8593 45.5387C6.8593 24.2145 24.1939 6.86514 45.5 6.86514C47.3943 6.86514 48.9297 5.32857 48.9297 3.43266C48.9297 1.53658 47.3943 0 45.5 0C20.411 0 0 20.4284 0 45.5387C0 70.648 20.411 91.0775 45.5 91.0775C70.5879 91.0775 91 70.648 91 45.5387C91 43.6428 89.4647 42.1061 87.5703 42.1061Z" fill="#E4704B"/>
</g>
<defs>
<clipPath id="clip0">
<rect width="91" height="91.0775" fill="white"/>
</clipPath>
</defs>
</svg>
