<svg id="Layer_1" data-name="Layer 1" xmlns="http://www.w3.org/2000/svg" viewBox="0 0 47 47"><defs><style>.cls-1{fill:#4fd758;}.cls-2{fill:#fff;}</style></defs><circle class="cls-1" cx="23.5" cy="23.5" r="23.5"/><path class="cls-2" d="M29.23,25.51c-.32-.16-1.84-.9-2.13-1s-.49-.15-.7.16a15,15,0,0,1-1,1.21c-.19.2-.37.22-.67.08a8.34,8.34,0,0,1-2.51-1.55,9.4,9.4,0,0,1-1.73-2.15.46.46,0,0,1,.14-.64c.14-.15.31-.36.47-.55a2.75,2.75,0,0,0,.31-.52.56.56,0,0,0,0-.54c-.08-.16-.7-1.69-1-2.3s-.51-.53-.7-.53a5.62,5.62,0,0,0-.59,0,1.16,1.16,0,0,0-.83.38,3.44,3.44,0,0,0-1.09,2.57,6.07,6.07,0,0,0,1.27,3.21A13.82,13.82,0,0,0,23.81,28c.74.32,1.32.5,1.77.66a4.36,4.36,0,0,0,2,.12,3.19,3.19,0,0,0,2.1-1.48,2.55,2.55,0,0,0,.19-1.49c-.08-.14-.28-.22-.59-.35Zm-5.67,7.68h0a10.38,10.38,0,0,1-5.27-1.44l-.38-.22-3.9,1,1.05-3.8-.25-.39a10.21,10.21,0,0,1-1.58-5.47,10.35,10.35,0,0,1,17.67-7.27A10.15,10.15,0,0,1,33.14,19a10.31,10.31,0,0,1-9.57,14.24Zm8.81-19.07a12.66,12.66,0,0,0-8.82-3.59A12.39,12.39,0,0,0,12.77,29.11L11,35.53l6.6-1.72a12.61,12.61,0,0,0,5.95,1.51h0A12.44,12.44,0,0,0,36,22.92a12.29,12.29,0,0,0-3.64-8.76Z"/></svg>