<svg id="Layer_1" data-name="Layer 1" xmlns="http://www.w3.org/2000/svg" viewBox="0 0 87.43 43.82"><path d="M86.43,35.73H69.34V1a1,1,0,0,0-1-1H19.64a1,1,0,0,0-1,1V35.73H1a1,1,0,0,0-1,1v6.09a1,1,0,0,0,1,1H86.43a1,1,0,0,0,1-1V36.73A1,1,0,0,0,86.43,35.73Zm-19.09,0H44.71V2H67.34ZM20.64,2H42.71V35.73H20.64ZM85.43,41.82H2V37.73H85.43Z"/><path d="M40,3.87H23.45a1,1,0,0,0-1,1V33.12a1,1,0,0,0,1,1H40a1,1,0,0,0,1-1V4.87A1,1,0,0,0,40,3.87ZM39,32.12H24.45V5.87H39Z"/><path d="M47.48,34.12H64a1,1,0,0,0,1-1V4.87a1,1,0,0,0-1-1H47.48a1,1,0,0,0-1,1V33.12A1,1,0,0,0,47.48,34.12Zm1-28.25H63V32.12H48.48Z"/></svg>