<svg id="Layer_1" data-name="Layer 1" xmlns="http://www.w3.org/2000/svg" viewBox="0 0 62.36 44.84"><path d="M25,27.94a1,1,0,0,0-1,1V33.1a1,1,0,0,0,2,0V28.94A1,1,0,0,0,25,27.94Z"/><path d="M36.8,34.1a1,1,0,0,0,1-1V28.94a1,1,0,1,0-2,0V33.1A1,1,0,0,0,36.8,34.1Z"/><path d="M61.36,11H42.05a5.61,5.61,0,0,0,1.86-4.17V6.19a1,1,0,0,0-1-1H33.64a1,1,0,0,0-1,1v.59A5.65,5.65,0,0,0,34.5,11H22.3V3.33a1.33,1.33,0,0,1,2.66,0V4.68a1,1,0,0,0,2,0V3.33a3.33,3.33,0,0,0-6.66,0V11H1a1,1,0,0,0-1,1V18a1,1,0,0,0,1,1H6.1v24.8a1,1,0,0,0,1,1H55.81a1,1,0,0,0,1-1V19h4.55a1,1,0,0,0,1-1V12A1,1,0,0,0,61.36,11ZM41.89,7.19a3.63,3.63,0,0,1-7.22,0ZM8.1,19H30.18v23.8H8.1Zm46.71,23.8H32.18V19H54.81ZM60.36,17H2V13H60.36Z"/></svg>