<svg id="Layer_1" data-name="Layer 1" xmlns="http://www.w3.org/2000/svg" viewBox="0 0 49.53 45.39"><defs><style>.cls-1{fill:none;}</style></defs><rect class="cls-1" x="2" y="12.5" width="34.22" height="2.99"/><path class="cls-1" d="M27,23.59v19.8h1.38l1.49-14.77a1,1,0,0,1,1-.89H33.2V23.59Z"/><path class="cls-1" d="M44.47,25l2.9-19.6H46.25L42.19,22.81a1,1,0,0,1-1,.78h-6v4.14h5.07a1,1,0,0,1,1,.75l3.83,14.91h1.79l-2.4-18.13A.87.87,0,0,1,44.47,25Z"/><path d="M49.51,4.52a1,1,0,0,0-1-1.14H45.46a1,1,0,0,0-1,.77l-4,17.44H35.2v-4.1h2a1,1,0,0,0,1-1v-5a1,1,0,0,0-1-1H1a1,1,0,0,0-1,1v5a1,1,0,0,0,1,1H4.49V43.84a1,1,0,0,0,2,0V17.49H33.2v4.1H26a1,1,0,0,0-1,1v21.8a1,1,0,0,0,1,1h3.28a1,1,0,0,0,1-.9l1.5-14.76H33.2v14a1,1,0,0,0,2,0V29.73h4.29l3.83,14.91a1,1,0,0,0,1,.75H48a1,1,0,0,0,1-1.13L46.46,25.13ZM2,12.5H36.22v3H2ZM30.85,27.73a1,1,0,0,0-1,.89L28.36,43.39H27V23.59H33.2v4.14Zm16,15.66H45.07L41.24,28.48a1,1,0,0,0-1-.75H35.2V23.59h6a1,1,0,0,0,1-.78L46.25,5.38h1.12L44.47,25a.87.87,0,0,0,0,.28Z"/><path d="M18.81,10.38h8.08a1,1,0,0,0,0-2H20.37L18.51.76a1,1,0,0,0-2,.48Z"/></svg>