<svg id="Layer_1" data-name="Layer 1" xmlns="http://www.w3.org/2000/svg" viewBox="0 0 98 98"><defs><style>.cls-1{fill:#fff;}.cls-2{fill:#e4704b;}</style></defs><path class="cls-1" d="M66.27,46.57,39.45,30.37A2.46,2.46,0,0,0,38.18,30a2.49,2.49,0,0,0-1.28.33,2.54,2.54,0,0,0-.94.93,2.49,2.49,0,0,0-.33,1.28V65A2.49,2.49,0,0,0,36,66.23a2.54,2.54,0,0,0,.94.93,2.49,2.49,0,0,0,1.28.33,2.46,2.46,0,0,0,1.27-.36l26.82-16.2a2.55,2.55,0,0,0,0-4.36Z"/><path class="cls-2" d="M48.75,0A48.75,48.75,0,1,0,97.5,48.75,48.81,48.81,0,0,0,48.75,0ZM67.17,50a2.51,2.51,0,0,1-.9.93L39.45,67.13a2.46,2.46,0,0,1-1.27.36,2.49,2.49,0,0,1-1.28-.33,2.54,2.54,0,0,1-.94-.93A2.49,2.49,0,0,1,35.63,65V32.55A2.49,2.49,0,0,1,36,31.27a2.54,2.54,0,0,1,.94-.93A2.49,2.49,0,0,1,38.18,30a2.46,2.46,0,0,1,1.27.36l26.82,16.2a2.54,2.54,0,0,1,.9,3.43Z"/></svg>