<svg id="Layer_1" data-name="Layer 1" xmlns="http://www.w3.org/2000/svg" viewBox="0 0 63.27 45.49"><path d="M63.25,14.38a1,1,0,0,0-1-1.14H60A1,1,0,0,0,59,14l-3,12.73H51.42l-.58-4.47h2a1,1,0,0,0,1-1v-5a1,1,0,0,0-1-1H33.13a3.31,3.31,0,0,0,.75-2.09v-.72a3.32,3.32,0,0,0-6.64,0v.72A3.26,3.26,0,0,0,28,15.29H24V5.51a.8.8,0,0,0-.06-.3s0,0,0-.06,0,0,0,0L21.77.57A1,1,0,0,0,20.9,0,1,1,0,0,0,20,.52L17.5,5.08l0,0,0,.08a1.2,1.2,0,0,0-.06.32v9.76h-.85s0,0,0-.06l-2.15-7a1,1,0,0,0-.94-.71,1,1,0,0,0-1,.66l-2.49,7a.38.38,0,0,0,0,.1H8.28a1,1,0,0,0-1,1v5a1,1,0,0,0,1,1h3.58l-.32,4.42H7.42L4.34,13.43a1,1,0,0,0-1-.78H1A1,1,0,0,0,0,13.8L2.36,29.65.42,44.36a1,1,0,0,0,.24.79,1,1,0,0,0,.75.34H4.26a1,1,0,0,0,1-.75L8.14,33.42h2.91L10.3,43.83a1,1,0,0,0,.93,1.07h.07a1,1,0,0,0,1-.93l.76-10.56h.66l1.13,11.17a1,1,0,0,0,1,.9h2.53a1,1,0,0,0,1-1V27.69a1,1,0,0,0-1-1H13.55l.32-4.42h35l.58,4.47H45.55a1,1,0,0,0-1,1V43.91a1,1,0,0,0,1,1H48a1,1,0,0,0,1-.9l1.08-10.72h.2L51.68,44.2a1,1,0,0,0,1,.87h.13a1,1,0,0,0,.86-1.12L52.27,33.29h3.1l2.79,10.86a1,1,0,0,0,1,.76h2.74a1,1,0,0,0,1-1.14L61,29.63Zm-34-1.9a1.32,1.32,0,0,1,2.64,0v.72a1.32,1.32,0,1,1-2.64,0ZM22,6.56v8.73H19.38V6.56ZM20.8,3.2l.64,1.35H20.06Zm-7.45,8.51.87,2.82H12.35Zm-6,19.71a1,1,0,0,0-1,.75L3.49,43.49H2.55L4.36,29.77a1.22,1.22,0,0,0,0-.27L2.16,14.65h.41L5.65,27.91a1,1,0,0,0,1,.78H11.4l-.2,2.73Zm10-2.73v14.8h-.63L15.62,32.32a1,1,0,0,0-1-.9H13.2l.2-2.73Zm-8.1-11.4H51.83v3H9.28Zm39.88,14a1,1,0,0,0-1,.9L47.08,42.91h-.53V28.74h3.11L50,31.29ZM59.9,42.91,57.11,32a1,1,0,0,0-1-.75H52l-.33-2.55h5.17a1,1,0,0,0,1-.78l3-12.72h.33L59,29.47a1.31,1.31,0,0,0,0,.28l1.73,13.16Z"/></svg>