<svg id="Layer_1" data-name="Layer 1" xmlns="http://www.w3.org/2000/svg" viewBox="0 0 14.46 36.01"><defs><style>.cls-1{fill:#e4704b;}</style></defs><path class="cls-1" d="M11.08,0a3.38,3.38,0,1,0,2.39,1A3.38,3.38,0,0,0,11.08,0Zm-.81,10.73c-2.67.23-10,6.05-10,6.05-.45.34-.31.32,0,.95s.31.65.74.36,1.19-.76,2.43-1.53c4.77-3.06.77,4-1.28,15.91-.81,5.89,4.5,2.86,5.87,2s5-3.37,5.33-3.62.14-.61-.24-1.17c-.27-.38-.54-.11-.54-.11-1.47,1-4.14,3-4.5,1.71S10.45,21.15,12,15.1C12.21,13.66,12.88,10.51,10.27,10.73Z"/></svg>