<svg id="Layer_1" data-name="Layer 1" xmlns="http://www.w3.org/2000/svg" viewBox="0 0 62.31 42.02"><path d="M62.3,1.15a1,1,0,0,0-1-1.15H58.24a1,1,0,0,0-1,.77l-4,17.44h-6l-.49-4.1h1.89a1,1,0,0,0,1-1v-5a1,1,0,0,0-1-1H12.32a1,1,0,0,0-1,1v5a1,1,0,0,0,1,1h3.13l-.51,4.13H9L5,1.15A1,1,0,0,0,4,.37H1A1,1,0,0,0,0,1.52L3,21.74.53,40.51a1,1,0,0,0,.24.79,1,1,0,0,0,.75.34H5.16a1,1,0,0,0,1-.75L9.88,26.27H14L12.27,40.1a1,1,0,0,0,.87,1.12h.12a1,1,0,0,0,1-.88L16,26.27h1.46l1.47,14.47a1,1,0,0,0,1,.9h3.22a1,1,0,0,0,1-1V19.24a1,1,0,0,0-1-1H17l.51-4.13H44.68l.48,4.1h-6.4a1,1,0,0,0-1,1V41a1,1,0,0,0,1,1H42a1,1,0,0,0,1-.9l1.49-14.77h1.6l1.69,14.36a1,1,0,0,0,1,.88h.11a1,1,0,0,0,.88-1.11L48.14,26.35h4.14l3.83,14.91a1,1,0,0,0,1,.76h3.71a1,1,0,0,0,.75-.35,1,1,0,0,0,.24-.79L59.25,21.76ZM9.1,24.27a1,1,0,0,0-1,.75L4.38,39.64H2.66L5,21.87a.66.66,0,0,0,0-.28L2.16,2.37H3.22l4,17.1a1,1,0,0,0,1,.77H14.7l-.49,4Zm13-4v19.4H20.81L19.34,25.17a1,1,0,0,0-1-.9H16.22l.49-4ZM13.32,9.13H47.58v3H13.32ZM43.63,24.35a1,1,0,0,0-1,.9L41.14,40H39.76V20.21H45.4l.49,4.14ZM59.64,40H57.85L54,25.1a1,1,0,0,0-1-.75H47.9l-.49-4.14H54a1,1,0,0,0,1-.78L59,2h1.12l-2.9,19.6a.88.88,0,0,0,0,.28Z"/></svg>