<svg id="Layer_1" data-name="Layer 1" xmlns="http://www.w3.org/2000/svg" viewBox="0 0 33.68 33.68"><path d="M16.84,0a16.84,16.84,0,1,1-8,31.63l-6.92,2a1.35,1.35,0,0,1-.77,0,1.37,1.37,0,0,1-.67-.38,1.33,1.33,0,0,1-.38-.67,1.35,1.35,0,0,1,0-.77l2-6.91A16.85,16.85,0,0,1,16.84,0Zm1.1,19H11.2a1.09,1.09,0,0,0-.68.36,1.11,1.11,0,0,0,0,1.45,1.09,1.09,0,0,0,.68.36h6.88a1,1,0,0,0,.68-.36,1.11,1.11,0,0,0,0-1.45,1,1,0,0,0-.68-.36Zm4.4-6.59H11.2a1.09,1.09,0,0,0-.68.36,1.11,1.11,0,0,0,0,1.45,1.09,1.09,0,0,0,.68.36H22.49a1.09,1.09,0,0,0,.68-.36,1.11,1.11,0,0,0,0-1.45,1.09,1.09,0,0,0-.68-.36Z"/></svg>