<svg id="Layer_1" data-name="Layer 1" xmlns="http://www.w3.org/2000/svg" viewBox="0 0 235.16 211.83"><defs><style>.cls-1{fill:#ebebeb;}.cls-2{fill:#fff;fill-rule:evenodd;}</style></defs><path class="cls-1" d="M166.17.39,35.5,52.76A21.93,21.93,0,0,0,3.26,81.51L71.94,193.3c9.75,15.86,29.74,22.79,47.1,15.83L231.72,164a5.48,5.48,0,0,0,3.05-7.13L173.3,3.45A5.48,5.48,0,0,0,166.17.39ZM12.6,75.77a11,11,0,0,1,17-13.65l74.88,72.65a38.35,38.35,0,0,0-37.24,29.87ZM115,199c-12.19,4.88-26.66,0-33.67-11.38h0l0,0a27.43,27.43,0,0,1,42.46-34.06l1.43,1.39a5.48,5.48,0,1,0,7.63-7.88L44.24,61.07,165.16,12.62l57.39,143.22Z"/><path class="cls-2" d="M35.2,54.81l-.81-.64A20.14,20.14,0,0,0,3.25,77.49a19.68,19.68,0,0,0,1.54,3.08h0l-1.53.94,1.53-.94L43.7,143.9c15.2,24.73,29.2,47.53,29.77,48.46a36.94,36.94,0,0,0,44.9,15.1l112.68-45.15a3.68,3.68,0,0,0,2-2,3.72,3.72,0,0,0,0-2.82L171.63,4.12a3.68,3.68,0,0,0-4.79-2.05ZM71.94,193.3,3.26,81.51A21.94,21.94,0,0,1,35.5,52.76L166.17.39a5.48,5.48,0,0,1,7.13,3.06l61.47,153.4a5.48,5.48,0,0,1-3.05,7.13L119,209.13C101.68,216.09,81.69,209.16,71.94,193.3ZM12.6,75.77a11,11,0,0,1,17-13.65l74.88,72.65q-1.24,0-2.49.09a38.36,38.36,0,0,0-34.12,27.37c-.24.8-.45,1.6-.63,2.41Zm-1.53.94L68,169.33,69,165a36.56,36.56,0,0,1,35.5-28.47l4.42,0L30.82,60.83h0A12.78,12.78,0,0,0,11.07,76.71ZM79.72,188.45A29.23,29.23,0,0,1,125,152.17h0l1.43,1.38a3.68,3.68,0,0,0,5.21-.08l1.3,1.25a5.49,5.49,0,0,1-7.76.13l-1.43-1.39a27.43,27.43,0,0,0-42.46,34.06l0,0h0c7,11.37,21.48,16.26,33.67,11.38l107.59-43.11L165.16,12.62,44.24,61.07,132.78,147a5.48,5.48,0,0,1,.13,7.75l-1.3-1.25a3.68,3.68,0,0,0-.08-5.21L41,60.43,166.17,10.27l58.72,146.57L115.63,200.62c-13,5.22-28.41,0-35.87-12.1h0"/><path class="cls-1" d="M152.86,78.84a7.56,7.56,0,0,1,4.42,2.8,8.85,8.85,0,0,1-1.52,11.73q-3.07,2.49-8.33,2.49a18.17,18.17,0,0,1-5.75-.92A13.7,13.7,0,0,1,137,92.36a2.79,2.79,0,0,1-1.06-2.16,2.64,2.64,0,0,1,.56-1.7,1.73,1.73,0,0,1,1.38-.74,1.71,1.71,0,0,1,.82.19,7.59,7.59,0,0,1,1,.5,19.4,19.4,0,0,0,3.68,2,10.25,10.25,0,0,0,3.81.69,7,7,0,0,0,4.51-1.2,4.59,4.59,0,0,0,1.47-3.72,4.16,4.16,0,0,0-1.56-3.59,7.61,7.61,0,0,0-4.74-1.2h-2.62a2.08,2.08,0,0,1-1.66-.69,2.73,2.73,0,0,1-.55-1.65,2.61,2.61,0,0,1,.55-1.66,2.08,2.08,0,0,1,1.66-.69h1.84q6.3,0,6.3-4.74a4.33,4.33,0,0,0-1.33-3.4,5.31,5.31,0,0,0-3.68-1.2,12.73,12.73,0,0,0-7.18,2.67c-.43.25-.76.43-1,.55a2.19,2.19,0,0,1-.83.14,1.79,1.79,0,0,1-1.38-.69,2.81,2.81,0,0,1-.55-1.75,2.62,2.62,0,0,1,.23-1.15,4.06,4.06,0,0,1,.83-1,14.68,14.68,0,0,1,4.6-2.53,16.45,16.45,0,0,1,5.52-1A11.48,11.48,0,0,1,155.21,65a7.7,7.7,0,0,1,2.85,6.26,8.38,8.38,0,0,1-1.43,4.69A7.62,7.62,0,0,1,152.86,78.84Z"/></svg>