<svg id="Layer_1" data-name="Layer 1" xmlns="http://www.w3.org/2000/svg" viewBox="0 0 269.31 205.71"><defs><style>.cls-1{fill:#ebebeb;}.cls-2,.cls-3{fill:#fff;}.cls-2{fill-rule:evenodd;}</style></defs><path class="cls-1" d="M137.28,31,29.33,74.3a18.12,18.12,0,0,0-28,21,19.26,19.26,0,0,0,1.39,2.76s56.74,92.34,56.74,92.36a32,32,0,0,0,38.91,13.07l93.09-37.3a4.53,4.53,0,0,0,2.52-5.89L143.17,33.56A4.53,4.53,0,0,0,137.28,31ZM10.41,93.31a10,10,0,0,1-.7-1.39A9.07,9.07,0,0,1,24.43,82l61.86,60a31.68,31.68,0,0,0-30.77,24.68ZM95,195.07a23,23,0,0,1-27.81-9.4h0l0,0a22.66,22.66,0,0,1,35.08-28.13l1.18,1.15a4.53,4.53,0,1,0,6.3-6.52l-73.14-71,99.9-40,47.41,118.32Z"/><path class="cls-2" d="M29.18,75.27,28.8,75A17.27,17.27,0,0,0,2.1,95,17,17,0,0,0,3.42,97.6l-.73.45.73-.45,30.3,49.32,26.44,43A31.16,31.16,0,0,0,98,202.69l93.08-37.3a3.69,3.69,0,0,0,2-4.78L142.38,33.88a3.68,3.68,0,0,0-4.78-2.05Zm-18.77,18a10,10,0,0,1-.7-1.39A9.07,9.07,0,0,1,24.43,82l61.86,60q-.6,0-1.2,0a31.38,31.38,0,0,0-10.45,2.24,31.72,31.72,0,0,0-18.83,21.24c-.1.39-.2.78-.29,1.17Zm-.73.44L55.89,169l.47-2A30.82,30.82,0,0,1,75,145.12a30.51,30.51,0,0,1,11.34-2.21h2.1L25,81.42A9.92,9.92,0,0,0,8.92,92.23a10.27,10.27,0,0,0,.76,1.52Zm56.73,92.34h0l0,0h0a23.89,23.89,0,0,0,28.86,9.75L185,159.93,136.92,40,35,80.86l74.1,71.88h0A3.67,3.67,0,0,1,104,158l-1.19-1.15a23.52,23.52,0,0,0-36.4,29.2h0Zm0,0h0Zm35.81-28.57a22.66,22.66,0,0,0-35.08,28.13l0,0h0A23,23,0,0,0,95,195.07l88.89-35.62L136.45,41.13l-99.9,40,73.14,71a4.53,4.53,0,1,1-6.3,6.52ZM29.33,74.3,137.28,31a4.53,4.53,0,0,1,5.89,2.52L194,160.29a4.53,4.53,0,0,1-2.52,5.89l-93.09,37.3a32,32,0,0,1-38.91-13.07S2.69,98.05,2.69,98.05A19.26,19.26,0,0,1,1.3,95.29a18.12,18.12,0,0,1,28-21Z"/><path class="cls-3" d="M78.75,53.6l69.66-26.41,48.15,127L126.9,180.62Z"/><path class="cls-1" d="M212.31.33,104.36,43.58a18.13,18.13,0,0,0-28,21,18.87,18.87,0,0,0,1.39,2.77l56.74,92.35a32,32,0,0,0,38.92,13.08l93.08-37.3a4.53,4.53,0,0,0,2.52-5.89L218.2,2.85A4.52,4.52,0,0,0,212.31.33ZM85.44,62.59a9.06,9.06,0,0,1,14-11.27l61.86,60A31.68,31.68,0,0,0,130.55,136ZM170,164.36a23,23,0,0,1-27.82-9.4h0l0,0a22.66,22.66,0,0,1,35.08-28.13l1.18,1.14a4.53,4.53,0,0,0,6.31-6.51l-73.15-71,99.9-40,47.41,118.32Z"/><path class="cls-2" d="M104.22,44.56l-.39-.3a17.27,17.27,0,0,0-26.7,20,18,18,0,0,0,1.32,2.63l-.73.45.73-.45,30.3,49.31,26.44,43A31.14,31.14,0,0,0,173.06,172l93.08-37.3a3.68,3.68,0,0,0,2.05-4.77L217.41,3.17a3.68,3.68,0,0,0-4.78-2Zm-18.78,18a9.06,9.06,0,0,1,14-11.27l61.86,60q-.6,0-1.2,0a31.67,31.67,0,0,0-29.28,23.48c-.1.39-.2.77-.29,1.16Zm-.73.45,46.21,75.21.47-2a30.82,30.82,0,0,1,29.94-24h2.1L100.06,50.71A9.92,9.92,0,0,0,84,61.52,10.27,10.27,0,0,0,84.71,63Zm56.73,92.34h0l0,0h0a23.87,23.87,0,0,0,28.86,9.74L260,129.22,212,9.31,110,50.15,184.13,122h0a3.67,3.67,0,0,1-5.11,5.28l-1.19-1.15a23.52,23.52,0,0,0-36.4,29.2h0Zm0,0h0Zm35.81-28.57a22.66,22.66,0,0,0-35.08,28.13l0,0h0a23,23,0,0,0,27.82,9.4l88.88-35.62L211.48,10.42l-99.9,40,73.15,71a4.53,4.53,0,0,1-6.31,6.51Zm-72.88-83.2L212.31.33a4.52,4.52,0,0,1,5.89,2.52L269,129.58a4.53,4.53,0,0,1-2.52,5.89l-93.08,37.3a32,32,0,0,1-38.92-13.08L77.72,67.34a18.87,18.87,0,0,1-1.39-2.77,18.13,18.13,0,0,1,28-21Z"/></svg>