<svg id="Layer_1" data-name="Layer 1" xmlns="http://www.w3.org/2000/svg" viewBox="0 0 123 118"><defs><style>.cls-1{fill:#fff;}</style></defs><path class="cls-1" d="M60.57,118a6.1,6.1,0,1,1,6.09-6.1A6.1,6.1,0,0,1,60.57,118Zm0-10.2a4.1,4.1,0,1,0,4.09,4.1A4.09,4.09,0,0,0,60.57,107.8Zm.82-6.2A10.2,10.2,0,1,1,71.56,91.4,10.19,10.19,0,0,1,61.39,101.6Zm0-18.4a8.2,8.2,0,1,0,8.17,8.2A8.19,8.19,0,0,0,61.39,83.2Zm-24.3,5.62a4.53,4.53,0,0,1-.52,0A6,6,0,0,1,33.2,78.2a5.94,5.94,0,0,1,4.38-1.4,6,6,0,0,1,5.48,6.5h0a6,6,0,0,1-6,5.52Zm0-10a4,4,0,0,0-.33,8,4,4,0,0,0,2.92-.93,4,4,0,0,0,1.41-2.74h0a4,4,0,0,0-3.65-4.34Zm48.29,9.7a6.1,6.1,0,1,1,5.82-6.1A6,6,0,0,1,85.36,88.48Zm0-10.19a4.1,4.1,0,1,0,3.82,4.09A4,4,0,0,0,85.36,78.29Zm-24.52-4A15.39,15.39,0,1,1,76.46,58.88,15.52,15.52,0,0,1,60.84,74.27Zm0-28.78A13.39,13.39,0,1,0,74.46,58.88,13.52,13.52,0,0,0,60.84,45.49ZM95.71,69.35a10.2,10.2,0,1,1,10.18-10.2A10.2,10.2,0,0,1,95.71,69.35Zm0-18.4a8.2,8.2,0,1,0,8.18,8.2A8.2,8.2,0,0,0,95.71,51ZM27.34,69.35a10.2,10.2,0,0,1,0-20.4,10.2,10.2,0,0,1,0,20.4Zm0-18.4a8.21,8.21,0,0,0,0,16.4,8.21,8.21,0,0,0,0-16.4ZM117,65.38a4.35,4.35,0,0,1-.51,0,6,6,0,0,1-5.48-6.5,6,6,0,0,1,6.49-5.49,6,6,0,0,1,5.48,6.5h0A6,6,0,0,1,120.87,64,5.93,5.93,0,0,1,117,65.38Zm0-10a4,4,0,1,0,4,4.35h0a4,4,0,0,0-3.66-4.34ZM6.09,65a6.1,6.1,0,1,1,6.08-6.1A6.1,6.1,0,0,1,6.09,65Zm0-10.2a4.1,4.1,0,1,0,4.08,4.1A4.1,4.1,0,0,0,6.09,54.78ZM36.6,43.12A6.1,6.1,0,1,1,42.68,37,6.1,6.1,0,0,1,36.6,43.12Zm0-10.2A4.1,4.1,0,1,0,40.68,37,4.1,4.1,0,0,0,36.6,32.92Zm49.53,8.9-.52,0a5.76,5.76,0,1,1,.52,0Zm0-10a4,4,0,1,0,.35,0ZM61.39,37.1A10.2,10.2,0,1,1,71.56,26.9,10.19,10.19,0,0,1,61.39,37.1Zm0-18.39a8.2,8.2,0,1,0,8.17,8.19A8.18,8.18,0,0,0,61.39,18.71ZM61.24,12l-.51,0a6,6,0,0,1-5.48-6.51A6,6,0,0,1,61.74,0a6,6,0,0,1,5.48,6.51h0a6,6,0,0,1-6,5.51Zm0-10a4,4,0,0,0-4,3.68A4,4,0,0,0,60.89,10a4,4,0,0,0,2.93-.93,4,4,0,0,0,1.4-2.73h0A4,4,0,0,0,61.57,2Z"/></svg>