<svg id="Layer_1" data-name="Layer 1" xmlns="http://www.w3.org/2000/svg" viewBox="0 0 116 117"><defs><style>.cls-1{fill:#fff;}</style></defs><path class="cls-1" d="M115.17,65.57a2.29,2.29,0,0,0-1.55-1.06c-3.22,0-31-1.22-31-36.14a1.83,1.83,0,1,0-3.65,0c0,34.92-27.78,36.14-30.86,36.14A1.57,1.57,0,0,0,47,65c-.28.15-.42.46-.56.61a2.42,2.42,0,0,0,0,2,1.94,1.94,0,0,0,1.69,1.07h.14c3.22,0,30.86,1.21,30.86,36.13a1.83,1.83,0,1,0,3.65,0c0-34.77,27.64-36.13,30.86-36.13a2.13,2.13,0,0,0,1.69-1.07A2,2,0,0,0,115.17,65.57ZM80.79,89.86c-4.06-14.42-14-20.65-21.88-23.38,7.86-2.73,17.82-9,21.88-23.38,4.07,14.42,14,20.65,21.89,23.38C94.82,69.21,84.86,75.44,80.79,89.86Z"/><path class="cls-1" d="M55.27,26.09A2,2,0,0,0,57.1,24a1.94,1.94,0,0,0-1.83-2c-1.68,0-16.83-.61-16.83-19.74a1.83,1.83,0,1,0-3.65,0C34.79,21.39,19.64,22,18,22h-.14A2,2,0,0,0,18,25.94c1.82,0,16.83.61,16.83,19.74a1.94,1.94,0,0,0,1.83,2c.84.16,1.68-.76,1.68-1.82,0-19.13,15.15-19.74,16.83-19.74Zm-18.8,8.66A19.55,19.55,0,0,0,26.37,24a19.61,19.61,0,0,0,10.1-10.78A19.6,19.6,0,0,0,46.58,24,19.66,19.66,0,0,0,36.47,34.75Z"/><path class="cls-1" d="M39.14,90.47c-1.68,0-16.83-.61-16.83-19.74a1.94,1.94,0,0,0-1.83-2,1.93,1.93,0,0,0-1.82,2c0,19.13-15.15,19.74-16.84,19.74H1.68a2,2,0,0,0,.14,4c1.83,0,16.84.6,16.84,19.73a1.94,1.94,0,0,0,1.82,2c.84.3,1.69-.61,1.69-1.82,0-19.13,15.15-19.74,16.83-19.74h.14A2,2,0,0,0,41,92.44,1.93,1.93,0,0,0,39.14,90.47Zm-18.8,12.9a20.07,20.07,0,0,0-10.1-10.78,19.61,19.61,0,0,0,10.1-10.78,19.62,19.62,0,0,0,10.1,10.78A19.72,19.72,0,0,0,20.34,103.37Z"/></svg>