<svg width="230" height="53" viewBox="0 0 230 53" fill="none" xmlns="http://www.w3.org/2000/svg">
<path d="M40.7659 20.7001C40.3631 20.7001 39.9604 20.6196 39.6382 20.3779L16.1188 4.75197C15.1522 4.1076 14.9106 2.89941 15.5549 1.93286C16.1993 0.966307 17.4075 0.724659 18.3741 1.36903L41.8935 16.995C42.8601 17.6394 43.1017 18.8475 42.4573 19.8141C42.0546 20.3779 41.4102 20.7001 40.7659 20.7001Z" fill="#F56060"/>
<path d="M27.633 51.0667C27.2303 51.0667 26.8276 50.9861 26.5054 50.7445L2.98595 35.1185C2.0194 34.4742 1.77776 33.266 2.42213 32.2994C3.0665 31.3329 4.27469 31.0912 5.24124 31.7356L28.7607 47.3616C29.7272 48.0059 29.9689 49.2141 29.3245 50.1807C28.9218 50.7445 28.2774 51.0667 27.633 51.0667Z" fill="#2EA836"/>
<path d="M15.9574 7.16857L13.8632 9.90715L4.84206 3.94673H14.2659C15.0714 3.94673 15.7158 4.34948 16.038 5.07439C16.5212 5.71876 16.4407 6.5242 15.9574 7.16857ZM43.182 45.5085L38.9936 42.6894C37.7854 41.8839 36.0939 42.1256 35.2079 43.3338L34.8857 43.7365C34.6441 44.1392 34.7246 44.6225 35.0468 44.8641L39.9601 48.1665H30.6168C29.8113 48.1665 29.0864 47.7638 28.7642 47.1194C28.3615 46.3945 28.4421 45.5891 28.9253 44.9447L38.2687 32.5406L43.3431 25.7747C44.7124 23.9222 45.0345 21.4252 44.068 19.4116C43.0209 17.3174 40.9267 16.0286 38.5908 16.0286H26.1062C24.0926 16.0286 22.1595 15.4648 20.5485 14.3372L17.3267 12.1624L19.1793 9.74605C20.5485 7.89349 20.8707 5.39655 19.9042 3.38289C18.8571 1.2887 16.7629 0 14.427 0H3.71441C2.10349 0 0.653659 0.966533 0.170383 2.49691C-0.312894 4.02728 0.250931 5.71876 1.62021 6.68531L18.2932 17.8007C20.6291 19.331 23.3676 20.1365 26.1062 20.1365H38.5103C39.3158 20.1365 40.0407 20.5392 40.3629 21.1836C40.7656 21.9085 40.685 22.714 40.2018 23.3584L30.053 36.8901L26.5895 34.6348C24.2537 33.1044 21.5151 32.2989 18.7765 32.2989H6.37243C5.56697 32.2989 4.84206 31.8962 4.51987 31.2519C4.11714 30.5269 4.19769 29.7215 4.68097 29.0771L10.6414 21.1836C11.6079 19.8949 11.2857 18.0423 9.91646 17.1563L9.67482 16.9952C9.35264 16.7536 8.86936 16.8341 8.54717 17.1563L1.45912 26.6607C0.0898414 28.5133 -0.1518 31.0102 0.895298 33.0239C1.9424 35.0375 4.11714 36.3262 6.45298 36.3262H18.696C20.7096 36.3262 22.6427 36.8901 24.2537 38.0177L27.4755 40.1925L25.6229 42.6088C24.2537 44.4614 23.9315 46.9583 24.898 48.972C25.9451 51.0662 28.0393 52.3549 30.3752 52.3549H41.1683C42.7793 52.3549 44.1485 51.3078 44.6318 49.858C45.1956 48.1665 44.5513 46.4751 43.182 45.5085Z" fill="white"/>
<path d="M71.6148 22.9552C71.051 22.9552 70.6483 22.7941 70.4066 22.5525C70.0845 22.2303 70.0039 21.8276 70.0039 21.3443V5.39612C70.0039 4.8323 70.165 4.42959 70.4872 4.1074C70.8094 3.78522 71.2121 3.62415 71.7759 3.62415C72.3398 3.62415 72.7425 3.78522 73.0647 4.1074C73.3868 4.42959 73.5479 4.8323 73.5479 5.39612V20.1361H81.1998C82.3275 20.1361 82.8107 20.6194 82.8107 21.5859C82.8107 22.5525 82.2469 23.0357 81.1998 23.0357H71.6148V22.9552Z" fill="white"/>
<path d="M97.629 22.9551C97.0651 22.9551 96.6624 22.7941 96.3402 22.5524C96.018 22.2302 95.9375 21.8275 95.9375 21.3442V5.47664C95.9375 4.91282 96.0986 4.51009 96.3402 4.26845C96.6624 3.94627 97.0651 3.86572 97.629 3.86572H107.456C108.019 3.86572 108.422 3.94624 108.664 4.18788C108.986 4.42952 109.066 4.75174 109.066 5.23502C109.066 5.71829 108.905 6.04047 108.664 6.2821C108.342 6.52374 107.939 6.60426 107.456 6.60426H99.401V11.9203H106.972C107.536 11.9203 107.939 12.0008 108.18 12.2425C108.503 12.4841 108.583 12.8063 108.583 13.2896C108.583 13.6924 108.422 14.095 108.18 14.2561C107.858 14.4978 107.456 14.5783 106.972 14.5783H99.401V20.2166H107.456C108.019 20.2166 108.422 20.3777 108.664 20.6193C108.986 20.8609 109.066 21.1831 109.066 21.6664C109.066 22.0691 108.905 22.4718 108.664 22.7135C108.342 22.9551 107.939 23.0357 107.456 23.0357H97.629V22.9551Z" fill="white"/>
<path d="M137.506 12.5656C137.909 12.5656 138.231 12.7267 138.553 12.9683C138.795 13.2099 138.956 13.5321 138.956 13.9349V19.8147C138.956 20.6202 138.875 21.2645 138.634 21.5867C138.392 21.9089 137.989 22.2311 137.264 22.3922C136.539 22.6338 135.734 22.8755 134.767 22.956C133.801 23.1171 132.915 23.1977 132.029 23.1977C130.015 23.1977 128.324 22.7949 126.874 21.9895C125.424 21.184 124.296 20.0563 123.491 18.6065C122.766 17.1567 122.363 15.3847 122.363 13.2905C122.363 11.2768 122.766 9.50483 123.491 8.055C124.296 6.60517 125.343 5.39697 126.793 4.67206C128.243 3.8666 129.854 3.46387 131.787 3.46387C134.365 3.46387 136.459 4.18876 138.07 5.55804C138.311 5.71914 138.472 5.96079 138.553 6.12188C138.634 6.28297 138.714 6.52463 138.714 6.84681C138.714 7.24954 138.634 7.57172 138.392 7.8939C138.15 8.13554 137.909 8.29663 137.586 8.29663C137.425 8.29663 137.184 8.2966 137.023 8.21605C136.862 8.13551 136.7 8.05499 136.459 7.8939C135.653 7.33008 134.928 6.92735 134.204 6.68571C133.479 6.44407 132.754 6.36351 131.868 6.36351C129.854 6.36351 128.404 6.92734 127.357 8.13553C126.391 9.26317 125.827 11.0352 125.827 13.371C125.827 18.1232 127.921 20.4591 132.029 20.4591C133.237 20.4591 134.526 20.298 135.734 19.9758V15.143H132.673C132.27 15.143 131.868 15.0625 131.626 14.8208C131.384 14.5792 131.304 14.257 131.304 13.9349C131.304 13.5321 131.384 13.2099 131.626 13.0488C131.868 12.8072 132.19 12.7267 132.673 12.7267H137.506V12.5656Z" fill="white"/>
<path d="M158.204 15.7061L161.829 7.65145L165.453 15.7061H158.204ZM171.172 20.861L163.601 4.75176C163.44 4.34903 163.198 4.10739 162.876 3.9463C162.554 3.78521 162.231 3.62415 161.829 3.62415C161.426 3.62415 161.104 3.70466 160.701 3.9463C160.379 4.10739 160.137 4.42958 159.976 4.75176L152.485 20.861C152.405 21.1026 152.324 21.3443 152.324 21.5859C152.324 21.9886 152.485 22.3914 152.808 22.633C153.13 22.9552 153.532 23.0357 153.935 23.0357C154.257 23.0357 154.499 22.9552 154.741 22.7941C154.982 22.633 155.224 22.3913 155.304 22.0692L156.915 18.4446H166.5L168.111 22.0692C168.272 22.3913 168.433 22.633 168.675 22.7941C168.917 22.9552 169.239 23.0357 169.481 23.0357C169.883 23.0357 170.286 22.8746 170.608 22.633C170.93 22.3108 171.091 21.9886 171.091 21.5859C171.333 21.3443 171.253 21.1026 171.172 20.861Z" fill="white"/>
<path d="M191.144 23.0356C190.58 23.0356 190.177 22.8745 189.855 22.5523C189.533 22.2302 189.372 21.8274 189.372 21.2636V6.52366H184.459C183.331 6.52366 182.848 6.0404 182.848 5.07384C182.848 4.10729 183.411 3.62402 184.459 3.62402H197.91C199.037 3.62402 199.521 4.10729 199.521 5.07384C199.521 6.0404 198.957 6.52366 197.91 6.52366H192.916V21.2636C192.916 21.8274 192.755 22.2302 192.433 22.5523C192.11 22.9551 191.708 23.0356 191.144 23.0356Z" fill="white"/>
<path d="M223.927 18.526C222.96 19.7342 221.591 20.3785 219.819 20.3785C218.047 20.3785 216.678 19.7342 215.631 18.526C214.664 17.3178 214.181 15.5458 214.181 13.2905C214.181 11.0352 214.664 9.26319 215.631 8.055C216.597 6.84681 218.047 6.2024 219.819 6.2024C221.591 6.2024 222.96 6.84681 223.927 8.055C224.893 9.26319 225.457 10.9547 225.457 13.2905C225.457 15.6263 224.974 17.3178 223.927 18.526ZM227.874 8.13553C227.149 6.6857 226.102 5.47752 224.732 4.67206C223.363 3.8666 221.752 3.46387 219.9 3.46387C218.047 3.46387 216.436 3.8666 214.986 4.67206C213.617 5.47752 212.57 6.60515 211.764 8.13553C211.039 9.58536 210.637 11.3574 210.637 13.371C210.637 15.3847 211.039 17.0761 211.764 18.6065C212.489 20.0563 213.536 21.2645 214.906 22.07C216.275 22.8754 217.886 23.2782 219.819 23.2782C221.672 23.2782 223.282 22.8754 224.652 22.07C226.021 21.2645 227.068 20.1369 227.874 18.6065C228.598 17.1567 229.001 15.3847 229.001 13.371C229.001 11.3574 228.598 9.58536 227.874 8.13553Z" fill="white"/>
<path d="M72.904 42.609H71.0514V39.951H72.904C73.8705 39.951 74.4343 40.3537 74.4343 41.2397C74.4343 42.1258 73.9511 42.609 72.904 42.609ZM75.0787 39.4678C74.5954 39.065 73.9511 38.8234 73.065 38.8234H70.2459C70.0043 38.8234 69.8432 38.9039 69.7627 38.9845C69.6821 39.1456 69.6016 39.3067 69.6016 39.4678V46.0725C69.6016 46.3141 69.6821 46.4752 69.7627 46.6363C69.9238 46.7974 70.0848 46.7974 70.3265 46.7974C70.5681 46.7974 70.7292 46.7169 70.8903 46.6363C71.0514 46.4752 71.1319 46.3141 71.1319 46.0725V43.6561H73.1456C74.0316 43.6561 74.676 43.4145 75.1592 43.0118C75.6425 42.609 75.8842 41.9647 75.8842 41.2397C75.8036 40.5148 75.562 39.8705 75.0787 39.4678Z" fill="white"/>
<path d="M83.5368 42.5281H81.6037V40.0311H83.5368C84.1006 40.0311 84.5033 40.1117 84.7449 40.3534C84.9866 40.5144 85.1477 40.8366 85.1477 41.3199C85.1477 41.7226 84.9866 42.0448 84.7449 42.2865C84.5033 42.367 84.1006 42.5281 83.5368 42.5281ZM86.5975 45.9111L85.5504 44.3001C85.3893 44.0585 85.2282 43.8974 85.0671 43.7363C84.906 43.5752 84.7449 43.4946 84.5033 43.4141C85.1477 43.3335 85.631 43.0114 85.9531 42.6892C86.2753 42.2865 86.517 41.8032 86.517 41.1588C86.517 40.4339 86.2753 39.7895 85.792 39.3868C85.3088 38.9841 84.6644 38.7424 83.6978 38.7424H80.8787C80.6371 38.7424 80.476 38.823 80.3955 38.9035C80.3149 39.0646 80.2344 39.2257 80.2344 39.3868V45.9916C80.2344 46.2332 80.3149 46.3943 80.3955 46.5554C80.5566 46.7165 80.7176 46.7165 80.9593 46.7165C81.2009 46.7165 81.362 46.636 81.4426 46.5554C81.6037 46.3943 81.6037 46.2332 81.6037 45.9916V43.5752H82.7313C82.9729 43.5752 83.2146 43.6558 83.3757 43.7363C83.5368 43.8168 83.6979 43.9779 83.8589 44.2196L85.3893 46.4748C85.4699 46.5554 85.5504 46.636 85.631 46.7165C85.7115 46.7971 85.8726 46.797 85.9531 46.797C86.1142 46.797 86.2753 46.7165 86.4364 46.6359C86.5975 46.5554 86.6781 46.3943 86.6781 46.2332C86.6781 46.1527 86.6781 45.9916 86.5975 45.9111Z" fill="white"/>
<path d="M92.1522 46.7968C91.9105 46.7968 91.7494 46.7163 91.6689 46.6357C91.5884 46.5552 91.5078 46.3136 91.5078 46.1525V39.5477C91.5078 39.306 91.5884 39.145 91.6689 39.0644C91.83 38.9033 91.9911 38.9033 92.1522 38.9033H96.26C96.5017 38.9033 96.6628 38.9839 96.7433 39.0644C96.9044 39.145 96.9044 39.3061 96.9044 39.4672C96.9044 39.6282 96.8239 39.7893 96.7433 39.8699C96.6628 39.9504 96.4211 40.0309 96.26 40.0309H92.8771V42.2057H96.0184C96.26 42.2057 96.4211 42.2862 96.5017 42.3668C96.5822 42.4473 96.6628 42.6084 96.6628 42.7695C96.6628 42.9306 96.5822 43.0917 96.5017 43.1723C96.3406 43.2528 96.1795 43.3334 96.0184 43.3334H92.8771V45.6692H96.26C96.5017 45.6692 96.6628 45.7497 96.7433 45.8303C96.9044 45.9108 96.9044 46.0719 96.9044 46.233C96.9044 46.3941 96.8239 46.5552 96.7433 46.6357C96.6628 46.7163 96.4211 46.7968 96.26 46.7968H92.1522Z" fill="white"/>
<path d="M108.589 38.7426C108.831 38.7426 108.992 38.8232 109.072 38.9843C109.233 39.1454 109.233 39.3065 109.233 39.4676V46.1529C109.233 46.3945 109.153 46.5556 109.072 46.6361C108.911 46.7167 108.831 46.7972 108.589 46.7972C108.428 46.7972 108.267 46.7167 108.106 46.6361C108.025 46.475 107.945 46.314 107.945 46.1529V41.4812L106.012 45.1058C105.931 45.2669 105.85 45.428 105.689 45.5085C105.609 45.5891 105.448 45.5891 105.287 45.5891C105.126 45.5891 105.045 45.5891 104.884 45.5085C104.803 45.428 104.642 45.3474 104.562 45.1058L102.629 41.4812V46.0723C102.629 46.3139 102.548 46.4751 102.467 46.5556C102.387 46.6362 102.226 46.7167 101.984 46.7167C101.823 46.7167 101.662 46.6362 101.501 46.5556C101.42 46.3945 101.34 46.2334 101.34 46.0723V39.387C101.34 39.1454 101.42 38.9843 101.501 38.9037C101.662 38.7426 101.823 38.6621 101.984 38.6621C102.306 38.6621 102.548 38.8232 102.709 39.1454L105.206 43.8976L107.703 39.1454C108.106 38.9037 108.347 38.7426 108.589 38.7426Z" fill="white"/>
<path d="M115.108 46.8776C114.866 46.8776 114.705 46.797 114.544 46.6359C114.383 46.4748 114.383 46.3137 114.383 46.0721V39.4674C114.383 39.2257 114.463 39.0646 114.544 38.9841C114.705 38.823 114.866 38.7424 115.108 38.7424C115.349 38.7424 115.51 38.823 115.672 38.9841C115.833 39.1452 115.913 39.3063 115.913 39.4674V46.0721C115.913 46.3137 115.833 46.4748 115.672 46.6359C115.51 46.797 115.349 46.8776 115.108 46.8776Z" fill="white"/>
<path d="M124.293 46.8778C123.165 46.8778 122.36 46.5556 121.796 45.9918C121.232 45.428 120.91 44.6225 120.91 43.4949V39.387C120.91 39.1454 120.991 38.9843 121.071 38.9037C121.232 38.7427 121.393 38.6621 121.555 38.6621C121.796 38.6621 121.957 38.7427 122.038 38.9037C122.199 39.0648 122.199 39.2259 122.199 39.387V43.5754C122.199 44.3003 122.36 44.7836 122.682 45.1058C123.004 45.428 123.488 45.5891 124.132 45.5891C124.776 45.5891 125.26 45.428 125.582 45.0252C125.904 44.703 126.065 44.1393 126.065 43.4949V39.3065C126.065 39.0648 126.146 38.9037 126.226 38.8232C126.387 38.6621 126.548 38.5815 126.709 38.5815C126.951 38.5815 127.112 38.6621 127.193 38.8232C127.354 38.9843 127.354 39.1454 127.354 39.3065V43.4143C127.354 44.4614 127.032 45.3474 126.468 45.9113C126.226 46.6362 125.34 46.8778 124.293 46.8778Z" fill="white"/>
<path d="M139.757 38.7426C139.999 38.7426 140.16 38.8232 140.24 38.9843C140.401 39.1454 140.401 39.3065 140.401 39.4676V46.1529C140.401 46.3945 140.321 46.5556 140.24 46.6361C140.079 46.7167 139.999 46.7972 139.757 46.7972C139.596 46.7972 139.435 46.7167 139.274 46.6361C139.193 46.475 139.113 46.314 139.113 46.1529V41.4812L137.179 45.1058C137.099 45.2669 137.018 45.428 136.857 45.5085C136.777 45.5891 136.616 45.5891 136.455 45.5891C136.293 45.5891 136.213 45.5891 136.052 45.5085C135.971 45.428 135.81 45.3474 135.73 45.1058L133.797 41.4812V46.0723C133.797 46.3139 133.716 46.4751 133.635 46.5556C133.555 46.6362 133.394 46.7167 133.152 46.7167C132.991 46.7167 132.83 46.6362 132.669 46.5556C132.588 46.3945 132.508 46.2334 132.508 46.0723V39.387C132.508 39.1454 132.588 38.9843 132.669 38.9037C132.83 38.7426 132.991 38.6621 133.152 38.6621C133.474 38.6621 133.716 38.8232 133.877 39.1454L136.374 43.8976L138.871 39.1454C139.274 38.9037 139.435 38.7426 139.757 38.7426Z" fill="white"/>
<path d="M154.897 45.5891H153.528V39.9509H154.897C156.75 39.9509 157.636 40.9175 157.636 42.77C157.636 44.7031 156.75 45.5891 154.897 45.5891ZM158.039 39.8704C157.314 39.1455 156.347 38.8232 154.978 38.8232H152.723C152.481 38.8232 152.32 38.9038 152.239 38.9843C152.159 39.0649 152.078 39.3066 152.078 39.4676V46.0724C152.078 46.314 152.159 46.4751 152.239 46.5557C152.4 46.6362 152.561 46.7168 152.723 46.7168H154.978C156.267 46.7168 157.314 46.3946 158.039 45.6697C158.763 44.9447 159.086 43.9782 159.086 42.6895C159.086 41.5618 158.763 40.5953 158.039 39.8704Z" fill="white"/>
<path d="M164.644 46.7968C164.403 46.7968 164.242 46.7163 164.161 46.6357C164.081 46.5552 164 46.3136 164 46.1525V39.5477C164 39.306 164.081 39.145 164.161 39.0644C164.322 38.9033 164.483 38.9033 164.644 38.9033H168.752C168.994 38.9033 169.155 38.9839 169.235 39.0644C169.316 39.145 169.397 39.3061 169.397 39.4672C169.397 39.6282 169.316 39.7893 169.235 39.8699C169.155 39.9504 168.913 40.0309 168.752 40.0309H165.369V42.2057H168.511C168.752 42.2057 168.913 42.2862 168.994 42.3668C169.074 42.4473 169.155 42.6084 169.155 42.7695C169.155 42.9306 169.074 43.0917 168.994 43.1723C168.913 43.2528 168.672 43.3334 168.511 43.3334H165.369V45.6692H168.752C168.994 45.6692 169.155 45.7497 169.235 45.8303C169.316 45.9108 169.397 46.0719 169.397 46.233C169.397 46.3941 169.316 46.5552 169.235 46.6357C169.155 46.7163 168.913 46.7968 168.752 46.7968H164.644Z" fill="white"/>
<path d="M177.536 46.8778C176.73 46.8778 176.086 46.7167 175.522 46.3945C174.958 46.0723 174.475 45.5891 174.233 44.9447C173.992 44.3003 173.75 43.5754 173.75 42.7699C173.75 41.9645 173.911 41.2396 174.233 40.5952C174.555 39.9508 174.958 39.4676 175.522 39.1454C176.086 38.8232 176.811 38.6621 177.536 38.6621C178.019 38.6621 178.502 38.7426 178.905 38.9037C179.308 39.0648 179.71 39.2259 180.033 39.5481C180.113 39.6286 180.194 39.7092 180.274 39.7897C180.274 39.8703 180.355 39.9508 180.355 40.1119C180.355 40.273 180.274 40.4341 180.194 40.5147C180.113 40.5952 180.033 40.6758 179.871 40.6758C179.71 40.6758 179.549 40.5952 179.388 40.5147C179.066 40.273 178.744 40.1119 178.502 40.0314C178.261 39.9508 177.938 39.8703 177.536 39.8703C176.73 39.8703 176.166 40.1119 175.764 40.5952C175.361 41.0785 175.2 41.8034 175.2 42.7699C175.2 43.7365 175.361 44.4614 175.764 44.9447C176.166 45.428 176.73 45.6696 177.536 45.6696C177.858 45.6696 178.18 45.5891 178.422 45.5085C178.663 45.428 178.985 45.2669 179.388 45.0252C179.469 44.9447 179.549 44.9447 179.63 44.9447C179.71 44.9447 179.791 44.8641 179.871 44.8641C180.033 44.8641 180.113 44.9447 180.194 45.0252C180.274 45.1058 180.355 45.2669 180.355 45.4279C180.355 45.5085 180.355 45.6696 180.274 45.7502C180.274 45.8307 180.194 45.9112 180.033 45.9918C179.71 46.2334 179.308 46.475 178.905 46.6361C178.502 46.8778 178.019 46.8778 177.536 46.8778Z" fill="white"/>
<path d="M190.18 45.025C189.778 45.5083 189.214 45.7499 188.489 45.7499C187.764 45.7499 187.2 45.5083 186.797 45.025C186.395 44.5417 186.153 43.8168 186.153 42.8503C186.153 41.8837 186.395 41.1588 186.797 40.6756C187.2 40.1923 187.764 39.9506 188.489 39.9506C189.214 39.9506 189.778 40.1923 190.18 40.6756C190.583 41.1588 190.825 41.8837 190.825 42.8503C190.825 43.8168 190.583 44.4612 190.18 45.025ZM191.791 40.6756C191.469 40.0312 191.066 39.5479 190.502 39.2257C189.939 38.9035 189.294 38.7424 188.489 38.7424C187.683 38.7424 187.039 38.9035 186.475 39.2257C185.911 39.5479 185.428 40.0312 185.186 40.6756C184.864 41.3199 184.703 42.0448 184.703 42.8503C184.703 43.6557 184.864 44.3806 185.186 45.025C185.509 45.6694 185.911 46.1526 186.475 46.4748C187.039 46.797 187.683 46.9581 188.489 46.9581C189.294 46.9581 189.939 46.797 190.502 46.4748C191.066 46.1526 191.55 45.6694 191.791 45.025C192.113 44.3806 192.274 43.6557 192.274 42.8503C192.274 41.9643 192.113 41.2394 191.791 40.6756Z" fill="white"/>
<path d="M200.408 42.5281H198.475V40.0311H200.408C200.972 40.0311 201.374 40.1117 201.616 40.3534C201.858 40.5144 202.019 40.8366 202.019 41.3199C202.019 41.7226 201.858 42.0448 201.616 42.2865C201.374 42.367 200.972 42.5281 200.408 42.5281ZM203.469 45.9111L202.421 44.3001C202.26 44.0585 202.099 43.8974 201.938 43.7363C201.777 43.5752 201.616 43.4946 201.374 43.4141C202.019 43.3335 202.502 43.0114 202.824 42.6892C203.146 42.2865 203.388 41.8032 203.388 41.1588C203.388 40.4339 203.146 39.7895 202.663 39.3868C202.18 38.9841 201.535 38.7424 200.569 38.7424H197.75C197.508 38.7424 197.347 38.823 197.267 38.9035C197.186 39.0646 197.105 39.2257 197.105 39.3868V45.9916C197.105 46.2332 197.186 46.3943 197.267 46.5554C197.428 46.7165 197.589 46.7165 197.83 46.7165C198.072 46.7165 198.233 46.636 198.314 46.5554C198.475 46.3943 198.475 46.2332 198.475 45.9916V43.5752H199.602C199.844 43.5752 200.086 43.6558 200.247 43.7363C200.408 43.8168 200.569 43.9779 200.73 44.2196L202.26 46.4748C202.341 46.5554 202.421 46.636 202.502 46.7165C202.583 46.7971 202.744 46.797 202.824 46.797C202.985 46.797 203.146 46.7165 203.307 46.6359C203.469 46.5554 203.549 46.3943 203.549 46.2332C203.63 46.1527 203.549 45.9916 203.469 45.9111Z" fill="white"/>
</svg>
