<svg width="85" height="21" viewBox="0 0 85 21" fill="none" xmlns="http://www.w3.org/2000/svg">
<g clip-path="url(#clip0)">
<path fill-rule="evenodd" clip-rule="evenodd" d="M45.6993 5.08575C45.9038 5.29712 47.7438 10.3326 47.9362 10.9543C48.1278 11.6204 48.3984 12.2593 48.7419 12.8566C49.3793 13.0058 49.4394 12.3469 49.6318 11.8247C50.6781 9.00227 52.2655 4.88682 53.0593 2.11417C53.6125 0.771367 53.6606 0.410799 52.6624 0.410799C51.6642 0.410799 51.7725 1.0822 51.3756 1.95254C51.0269 3.60618 49.6799 7.09996 49.1869 8.70387C49.1869 8.91524 49.1869 8.91524 48.9343 8.91524C48.1045 6.52803 47.1425 3.60618 46.2044 1.24384C45.9519 0.783801 45.5069 0.684334 45.2063 1.71631C44.7012 3.35751 44.0037 5.30956 43.4625 6.90103C43.4625 6.90103 42.8131 8.91524 42.765 9.01471C42.4211 8.443 42.1692 7.81733 42.0194 7.16213C41.2737 5.25982 40.6243 3.20831 39.987 1.306C39.8306 0.945435 39.8306 0.734067 39.4819 0.5227C39.1323 0.38877 38.7543 0.354417 38.3875 0.423232C37.4014 0.584867 38.0387 1.40547 38.2432 2.01471C39.4458 5.35929 40.7807 9.37528 42.1156 12.5582C42.1468 12.6371 42.1976 12.7061 42.2629 12.7582C42.3281 12.8103 42.4055 12.8437 42.4872 12.855C42.5689 12.8664 42.652 12.8553 42.7282 12.8228C42.8044 12.7903 42.871 12.7377 42.9213 12.6701C43.1137 12.2847 45.555 5.08575 45.6993 5.08575Z" fill="#221F20"/>
<path fill-rule="evenodd" clip-rule="evenodd" d="M0.193291 0.621992C0.143579 0.829116 0.160465 1.04734 0.241395 1.24366C0.445838 2.114 -0.155464 12.0358 0.000874361 12.4337C0.487658 12.66 1.03343 12.7125 1.55223 12.5829C1.79275 12.3218 1.69655 12.0731 1.69655 11.6628C1.69655 9.90974 1.84086 8.2188 1.84086 6.41595C1.90099 5.74455 1.94909 5.28451 1.94909 4.87421C1.94909 4.46391 1.94909 4.51364 2.0453 4.41418C2.14151 4.31471 3.71692 7.14952 3.87326 7.46036C4.17391 8.06959 4.76318 9.0021 5.16004 9.72324C5.76134 10.8547 6.062 10.0838 6.20631 9.8227C6.55506 9.36267 9.24889 4.47634 9.44131 4.37688C9.6217 4.57581 9.6217 9.46214 9.6217 9.8227C9.6217 12.4959 9.32105 12.757 10.9566 12.6451C11.4617 12.6451 11.5098 12.2348 11.4617 11.7747C11.4617 10.9044 11.4617 9.92217 11.4617 9.05183C11.3294 6.83869 11.2332 4.31471 11.2332 2.114C11.2332 1.8529 11.3294 0.87066 11.3294 0.721459C11.1822 0.549934 10.9827 0.435493 10.7641 0.397059C10.5454 0.358625 10.3206 0.3985 10.1268 0.510092C9.77804 0.721459 9.68183 1.18149 9.42929 1.49233C8.4191 3.34491 7.06016 5.44615 6.1101 7.19926C5.76134 7.82093 5.76134 7.60956 5.46069 7.19926C4.81129 6.21702 3.96947 4.52608 3.38019 3.54384L2.17759 1.49233C2.01042 1.13582 1.79589 0.805206 1.54021 0.510092C1.20348 0.261424 0.542046 0.460358 0.193291 0.621992Z" fill="#221F20"/>
<path fill-rule="evenodd" clip-rule="evenodd" d="M63.6528 6.37889C64.0784 6.01983 64.5833 5.77517 65.1226 5.6667C65.6618 5.55824 66.2186 5.58933 66.7434 5.75722C68.3309 6.47836 68.5353 8.90287 67.8378 10.084C67.5408 10.5444 67.1128 10.898 66.6131 11.0962C66.1133 11.2945 65.5664 11.3274 65.0478 11.1906C64.5454 11.0881 64.0698 10.8762 63.6528 10.5689V6.37889ZM63.6528 4.62578C63.5778 3.27165 63.5778 1.9142 63.6528 0.560065C63.6528 0.000562301 63.4603 -0.0989048 62.9552 0.100029C61.7526 0.622232 61.7526 0.410864 61.921 1.5423C62.0172 2.11424 61.921 8.74124 61.921 9.67374C61.921 11.5139 61.6685 11.9366 64.2541 12.7075C64.9903 12.8671 65.7501 12.8712 66.4879 12.7195C67.2257 12.5678 67.9262 12.2635 68.5474 11.8247C71.0849 9.67374 70.3873 3.60625 65.7573 4.06628C65.3537 4.08886 64.952 4.1387 64.5547 4.21548C64.3984 4.26522 63.8091 4.62578 63.7369 4.62578H63.6528Z" fill="#221F20"/>
<path fill-rule="evenodd" clip-rule="evenodd" d="M28.585 12.5451C28.7731 11.8967 28.8264 11.2145 28.7414 10.5433C28.6921 9.83967 28.6921 9.13327 28.7414 8.42963C28.8857 8.42963 29.042 8.69073 29.3427 9.00157C29.6433 9.3124 32.1207 11.9856 32.5176 12.284C32.656 12.4172 32.8229 12.5148 33.0047 12.5688C33.1865 12.6228 33.3781 12.6317 33.5638 12.5948C33.9126 12.5948 34.4658 12.5948 34.6582 12.3462C34.6582 11.9856 33.9607 11.4136 33.66 11.1028C33.3594 10.792 32.9745 10.3941 32.6258 9.97137C31.8609 9.27538 31.1455 8.52328 30.4852 7.72093C30.4852 7.60903 33.2151 5.23425 33.7202 4.78665C33.9126 4.57528 34.117 4.52555 34.0689 4.21471C33.4499 4.0173 32.7878 4.0173 32.1688 4.21471C31.9283 4.32661 30.2807 5.86835 29.8357 6.27866C29.6914 6.42786 28.8376 7.36036 28.7414 7.31063C28.5971 6.83816 28.7414 0.410093 28.6452 0.049525C28.549 -0.311043 26.8533 0.260893 26.9014 0.882562C26.9957 1.31936 27.0441 1.7654 27.0457 2.21294V11.1028C27.0457 11.4136 26.9495 12.3462 27.1539 12.4954C27.6218 12.619 28.1102 12.636 28.585 12.5451Z" fill="#221F20"/>
<path fill-rule="evenodd" clip-rule="evenodd" d="M15.6319 8.32979C16.1851 8.18059 18.0372 8.64062 18.1213 9.15039C18.1694 9.70048 18.1694 10.2539 18.1213 10.804C17.7726 11.2641 15.3794 12.1841 14.5857 10.5429C14.4787 10.3098 14.4232 10.055 14.4232 9.79693C14.4232 9.53888 14.4787 9.28407 14.5857 9.05092C14.7012 8.86136 14.854 8.69914 15.0343 8.57487C15.2146 8.4506 15.4183 8.36708 15.6319 8.32979ZM18.1694 7.70812C17.7021 7.38805 17.1795 7.1643 16.6301 7.04915C15.9455 6.97077 15.2528 7.02132 14.5857 7.19835C14.0239 7.36469 13.5286 7.71299 13.1726 8.19204C12.8166 8.67109 12.6187 9.2556 12.6079 9.85962C12.5971 10.4636 12.7741 11.0553 13.1128 11.5476C13.4515 12.0399 13.934 12.4068 14.4895 12.5944C15.4407 12.9298 16.4726 12.9298 17.4238 12.5944C17.6283 12.495 18.0251 12.2339 18.1694 12.1841C18.3137 12.1344 18.3739 12.5447 18.5663 12.6442C18.7587 12.7436 19.6607 12.6442 19.9132 12.3955C20.1658 12.1468 20.2139 12.1841 20.0575 11.8236C19.8248 11.3478 19.7408 10.8091 19.817 10.2818V6.57668C19.8799 6.05205 19.756 5.52169 19.4682 5.08467C18.5182 3.13263 12.7938 3.9035 13.2508 5.55714C13.7078 7.21078 14.4534 4.9852 16.9789 5.29604C18.3378 5.44524 18.1935 6.78805 18.1935 7.70812H18.1694Z" fill="#221F20"/>
<path fill-rule="evenodd" clip-rule="evenodd" d="M77.0375 7.46014H72.9125C72.9678 6.94963 73.1931 6.4749 73.5499 6.11734C73.9393 5.76426 74.4286 5.55059 74.9449 5.5081C75.2139 5.48513 75.4845 5.51844 75.7407 5.60602C75.997 5.69361 76.2335 5.83368 76.4362 6.01787C76.6402 6.19143 76.8012 6.41284 76.9058 6.6637C77.0104 6.91456 77.0555 7.18761 77.0375 7.46014ZM72.8043 8.79052C73.1049 8.64131 77.6147 8.79052 78.4325 8.79052C79.2502 8.79052 78.8774 6.01787 77.3862 4.88643C76.777 4.41685 76.0517 4.13499 75.2942 4.07338C74.5366 4.01177 73.7776 4.17292 73.1049 4.53824C72.4321 4.90356 71.873 5.45815 71.4922 6.13796C71.1113 6.81778 70.9241 7.59511 70.9523 8.38021C70.9237 9.14274 71.0953 9.89904 71.4489 10.5689C71.8025 11.2387 72.3249 11.7971 72.9606 12.1848C74.2955 13.1173 77.8793 13.0676 78.3242 11.6253C78.8774 9.77275 77.5786 10.8047 77.1216 11.0037C76.7373 11.1665 76.3323 11.2712 75.919 11.3145C73.2613 11.6253 72.6119 9.20082 72.8043 8.79052Z" fill="#221F20"/>
<path fill-rule="evenodd" clip-rule="evenodd" d="M54.7551 7.46008C54.7973 6.92903 55.0308 6.43372 55.4094 6.07222C55.788 5.71071 56.2841 5.50936 56.7995 5.50804C57.8337 5.39613 59.0363 6.32864 58.8319 7.46008H54.7551ZM54.5506 8.70342C54.8032 8.70342 59.4813 8.70342 60.1307 8.70342C60.7801 8.70342 60.6719 8.29312 60.6238 7.78335C60.5886 7.09299 60.3807 6.4239 60.0202 5.84163C59.6598 5.25935 59.1592 4.78386 58.5676 4.46173C57.9759 4.1396 57.3135 3.98187 56.6452 4.004C55.9769 4.02613 55.3256 4.22735 54.7551 4.58796C54.1136 4.97977 53.589 5.54682 53.2389 6.2268C52.8889 6.90677 52.7269 7.67336 52.7708 8.44232C52.7197 9.20139 52.8851 9.95928 53.2463 10.6222C53.6075 11.2852 54.1488 11.8241 54.8032 12.1723C56.4989 13.254 59.8301 12.794 60.1307 11.5631C60.1307 11.2025 60.3712 10.3198 59.8301 10.5311C59.1764 10.9132 58.4648 11.178 57.7255 11.3144C57.3314 11.3689 56.9308 11.3419 56.5469 11.2352C56.1629 11.1285 55.8032 10.9441 55.4887 10.6928C55.0557 10.3322 54.3582 9.25049 54.5506 8.70342Z" fill="#221F20"/>
<path fill-rule="evenodd" clip-rule="evenodd" d="M81.561 12.5938C81.8617 12.2829 81.8135 12.1337 81.8135 11.6737V10.4304C81.8135 8.78914 81.5129 6.06623 83.3529 5.65593C83.7497 5.55646 83.8459 5.9046 84.351 5.80513C84.6489 5.52884 84.8726 5.17763 85.0005 4.78559C85.0005 4.00229 83.7978 3.85309 82.7035 4.36285C82.3547 4.52449 82.0661 5.08399 81.8135 5.13373C81.8135 4.67369 81.9098 4.47476 81.6091 4.06445C81.2236 4.10267 80.8505 4.2256 80.5147 4.42502C80.0217 4.67369 79.9255 4.67369 80.0217 5.29536C80.1179 5.91703 80.0217 10.1817 80.0217 11.2012C80.0698 12.7554 80.0698 12.7057 81.561 12.5938Z" fill="#221F20"/>
<path fill-rule="evenodd" clip-rule="evenodd" d="M22.9226 12.546V12.4465C23.0622 11.1837 23.0984 9.91096 23.0309 8.64187C23.0309 7.65963 23.2714 6.06816 24.3176 5.75732C25.1595 5.44649 25.2076 6.26709 25.7608 5.75732C27.0475 4.36478 25.3158 3.80528 24.2695 4.26532C23.2233 4.72535 23.3676 5.08592 23.0669 5.18539C23.0428 4.98308 23.0428 4.77846 23.0669 4.57615C23.0669 4.31505 22.9587 4.31505 22.8625 4.16585C22.4769 4.1626 22.098 4.27022 21.7681 4.47668C21.2751 4.67562 21.1187 4.72535 21.2751 5.34702C21.3808 6.30023 21.413 7.26064 21.3713 8.21913V11.0539C21.4795 12.5957 21.2751 12.7076 22.9226 12.546Z" fill="#221F20"/>
<path fill-rule="evenodd" clip-rule="evenodd" d="M45.3495 14.1982C43.3642 14.4514 41.4121 14.9309 39.5289 15.628C38.9396 15.8891 38.3263 16.0383 37.737 16.2994C36.5344 16.7595 35.4039 17.1698 34.2134 17.6423C33.8165 17.7915 30.9784 18.6618 30.4853 18.7737C28.0801 19.3829 24.4723 20.1041 22.1753 19.0224C21.0809 18.4629 20.9727 20.2035 23.4621 20.8252C24.9179 21.0888 26.4118 21.0209 27.8396 20.6263C29.0422 20.3652 30.4853 19.9051 31.6278 19.5446C32.7702 19.184 34.1172 18.7737 35.3558 18.4131C35.6565 18.3012 35.897 18.2018 36.2458 18.1023L38.0857 17.5304C38.4345 17.4309 38.687 17.2817 38.9877 17.1698L40.8878 16.7097C41.2366 16.6103 41.4891 16.5108 41.7898 16.3989C44.3077 15.8436 46.8758 15.5685 49.4503 15.5783C50.0877 15.5783 51.0378 15.7399 51.6872 15.8394C52.8898 15.9886 52.6252 15.3296 51.8315 14.9069C49.7678 14.0894 47.5329 13.845 45.3495 14.1982Z" fill="#F9CC46"/>
</g>
<defs>
<clipPath id="clip0">
<rect width="85" height="21" fill="white"/>
</clipPath>
</defs>
</svg>
