<svg width="52" height="51" viewBox="0 0 52 51" fill="none" xmlns="http://www.w3.org/2000/svg">
<g clip-path="url(#clip0)">
<path d="M3.6213 36.0823L3.62079 36.0845C3.42204 36.9149 3.21796 37.7675 2.86561 38.5832M3.6213 36.0823L5.23432 39.9745L2.86561 38.5832M3.6213 36.0823C3.68037 35.8331 3.7403 35.5848 3.80284 35.339M3.6213 36.0823L3.80284 35.339M2.86561 38.5832L2.95741 38.6228C2.96911 38.5957 2.98065 38.5686 2.99203 38.5415M2.86561 38.5832L2.91626 38.4969L2.99203 38.5415M2.99203 38.5415C3.32672 37.7426 3.52548 36.9123 3.71712 36.1116L3.71855 36.1056L3.71861 36.1054C3.7776 35.8565 3.83737 35.6088 3.89969 35.3639M2.99203 38.5415L5.28497 39.8883L5.28499 39.8883C13.2597 44.576 23.224 47.8084 31.936 48.5375C34.1253 48.7199 37.6791 48.6496 41.1777 48.1318C44.6812 47.6132 48.1067 46.6489 50.0576 45.0577L50.1343 44.9951L50.1977 45.0712L51.3017 46.3972L51.3663 46.4749L51.288 46.5387C49.3574 48.1132 46.368 49.1124 43.2478 49.719C40.1243 50.3263 36.8555 50.5428 34.3537 50.5428C33.351 50.5428 32.4717 50.5083 31.7726 50.4496C31.7726 50.4496 31.7725 50.4496 31.7725 50.4496L31.7809 50.35C22.8038 49.5989 12.548 46.273 4.34573 41.4527L3.89969 35.3639M3.89969 35.3639C4.08308 34.6527 4.28576 33.4991 4.51898 32.1717L4.52326 32.1473L4.42477 32.13L4.52326 32.1473L4.52469 32.1392C4.69376 31.1762 4.88302 30.0984 5.07738 29.1405C5.27281 28.1774 5.47177 27.3443 5.65829 26.8711L10.8613 13.6778C10.9741 13.3923 11.0766 13.0855 11.1804 12.7749L11.1862 12.7575L11.1863 12.7573C11.3274 12.3325 11.469 11.9067 11.6426 11.528C11.8164 11.149 12.0186 10.8258 12.2758 10.6021L12.2759 10.602C12.5711 10.3445 12.9592 10.1503 13.3454 9.97423C13.3965 9.95183 13.4446 9.92458 13.489 9.89338L13.489 9.89343L13.4918 9.8913L23.7875 2.0906L23.7877 2.09046C24.2674 1.72528 24.9326 1.73022 25.4056 2.10635L25.4058 2.10649L30.5688 6.19288M3.89969 35.3639C3.89969 35.3639 3.89968 35.3639 3.89967 35.3639L3.80284 35.339M3.89969 35.3639C3.89971 35.3638 3.89973 35.3637 3.89975 35.3636L3.80284 35.339M3.89969 35.3639L30.5688 6.19288M42.0637 27.5969C43.3266 28.3418 44.4239 29.3118 45.2768 30.491L45.336 30.5728L45.2536 30.6312L43.8403 31.6315L43.7595 31.6887L43.7015 31.6085C41.6248 28.7366 37.7609 27.3201 33.5901 27.9388L33.5901 27.9388C30.8083 28.3505 28.4207 29.603 26.8015 31.3947L25.9722 32.5917L25.9154 32.6737L25.8578 32.634C25.5082 33.1888 25.2226 33.7792 25.0118 34.4008L24.9799 34.495L24.8856 34.4636L23.2387 33.9162L23.1432 33.8844L23.1755 33.7892C23.4227 33.0603 23.751 32.3671 24.1511 31.7154C23.1511 31.2818 22.0907 30.9929 21.0008 30.8967C20.6947 30.871 20.399 30.8661 20.1646 30.931C19.4315 33.1401 18.2025 35.0743 16.5449 36.512L16.4702 36.5768L16.4045 36.5027L15.2597 35.2102L15.1927 35.1345L15.269 35.0683C17.5811 33.063 18.9819 29.7313 19.0052 26.1549C19.013 24.9631 18.886 23.7858 18.7509 22.5329L18.7496 22.5208L42.0637 27.5969ZM42.0637 27.5969C44.55 25.615 48.0944 24.9147 51.1194 25.9544L51.2133 25.9867L51.2462 25.893L51.816 24.2696L51.8493 24.1747L51.7542 24.1419C47.8219 22.787 43.1753 23.8704 40.1709 26.694C38.1007 25.9254 35.7373 25.6795 33.3045 26.0411C30.0641 26.5196 27.2641 27.9982 25.3435 30.1313C24.0366 29.5082 22.6217 29.1151 21.1701 28.9864C21.0119 28.9723 20.8448 28.9644 20.6739 28.9629C20.8416 28.0598 20.9357 27.126 20.9416 26.1682C20.9416 26.1682 20.9416 26.1682 20.9416 26.1681L20.8416 26.1675M42.0637 27.5969L20.5393 16.721L20.4401 16.7087C20.3471 17.5295 20.303 18.3565 20.323 19.1858C20.3473 20.224 20.4629 21.2931 20.5749 22.3269C20.7104 23.5756 20.8503 24.8664 20.8416 26.1675M30.5688 6.19288C30.5688 6.19289 30.5688 6.19289 30.5688 6.1929C30.8722 6.43324 31.0509 6.79123 31.059 7.17536C31.0671 7.55975 30.9052 7.92489 30.6123 8.17876L30.5688 6.19288ZM27.3186 11.0293L30.6123 8.17881L27.3186 11.0293ZM27.3186 11.0293C27.3185 11.0294 27.3185 11.0294 27.3185 11.0294C26.7987 11.4789 26.0136 11.451 25.5269 10.9712L27.3186 11.0293ZM24.6536 7.38023L24.9445 7.18783L25.027 7.13319L25.0825 7.21525L26.0475 8.64356L26.104 8.72717L26.0199 8.7829L25.728 8.97627L25.7278 8.97641C25.3993 9.19283 25.1891 9.53973 25.1495 9.92728C25.1109 10.3156 25.2476 10.6948 25.5267 10.971L24.6536 7.38023ZM24.6536 7.38023C23.8408 7.91574 23.3188 8.77539 23.222 9.73799C23.1251 10.7007 23.467 11.6448 24.1579 12.3285M24.6536 7.38023L24.1579 12.3285M24.1579 12.3285C25.3634 13.522 27.3119 13.5858 28.5926 12.4748L31.2772 10.151L32.0163 11.2482L26.9141 15.5758L20.8497 14.8254C20.9383 14.4235 21.0389 14.0242 21.1547 13.6288L21.1829 13.5323L21.0863 13.5045L19.4186 13.0259L19.3231 12.9984L19.295 13.0938C18.7093 15.0881 18.4387 17.1515 18.4867 19.2285L18.4867 19.2286C18.5129 20.343 18.6332 21.4523 18.7495 22.5207L24.1579 12.3285ZM20.8416 26.1675C20.8357 27.1255 20.741 28.0596 20.5722 28.9627L20.8416 26.1675ZM12.7746 8.05366L22.6077 0.568329L22.6683 0.647898L22.6077 0.568322C23.7958 -0.335881 25.4445 -0.321722 26.6165 0.60557L26.6165 0.605585L31.7787 4.69199L31.7787 4.69203C32.5306 5.28783 32.9764 6.17761 32.997 7.13238C33.0092 7.6828 32.866 8.20773 32.6168 8.67838L34.1066 10.8901C34.3784 11.2935 34.3034 11.8351 33.9301 12.1507L27.8502 17.3068C27.8501 17.3069 27.85 17.3069 27.85 17.307L27.85 17.307L27.7853 17.2307L12.7746 8.05366ZM12.7746 8.05366L12.4623 8.26494C11.997 8.47954 11.4616 8.75678 10.9988 9.1595C10.0753 9.96293 9.68366 11.1424 9.34739 12.1551L9.34698 12.1563L9.34694 12.1564C9.25218 12.4428 9.15919 12.7213 9.05785 12.9796C9.05783 12.9797 9.05782 12.9797 9.05781 12.9797L3.85487 26.173L3.9479 26.2096L3.85487 26.173C3.62948 26.7446 3.41656 27.6058 3.21197 28.5953C3.00705 29.5864 2.80918 30.7131 2.61511 31.8188L2.60465 31.8783C2.38844 33.1086 2.18642 34.2581 2.02352 34.8902C2.02351 34.8903 2.02351 34.8903 2.0235 34.8903L2.12034 34.9153M12.7746 8.05366L1.93098 35.6862L1.93101 35.686C1.99267 35.4283 2.05433 35.1705 2.12034 34.9153M2.12034 34.9153C2.28424 34.2793 2.48673 33.1271 2.70225 31.9007L2.7136 31.8361L2.12034 34.9153Z" fill="#231F20" stroke="black" stroke-width="0.2"/>
</g>
<defs>
<clipPath id="clip0">
<rect width="50.9841" height="50.4427" fill="white" transform="translate(0.800781)"/>
</clipPath>
</defs>
</svg>
