<svg id="Layer_1" data-name="Layer 1" xmlns="http://www.w3.org/2000/svg" viewBox="0 0 43.23 55.4"><defs><style>.cls-1{fill:#fff;stroke:#fff;stroke-width:0.4px;}</style></defs><path class="cls-1" d="M42.48,11.34,21.81.32a1,1,0,0,0-1,0l-20.1,11a1,1,0,0,0-.53.9V26.63A29.79,29.79,0,0,0,18.06,53.9l2.79,1.21a1,1,0,0,0,.82,0l3.14-1.36A29.73,29.73,0,0,0,43,26.35V12.24a1,1,0,0,0-.55-.9ZM41,26.35A27.67,27.67,0,0,1,24,51.86h0l-2.74,1.18-2.38-1A27.72,27.72,0,0,1,2.26,26.63V12.85L21.33,2.4,41,12.86Z"/><path class="cls-1" d="M13.74,26a1,1,0,1,0-1.56,1.33l5.43,6.37A1,1,0,0,0,19,33.8L31.71,23.5a1,1,0,0,0,.14-1.45,1,1,0,0,0-1.44-.15L18.53,31.57Z"/></svg>