<svg width="61" height="54" viewBox="0 0 61 54" fill="none" xmlns="http://www.w3.org/2000/svg">
<path d="M60.7177 31.5126C60.7168 31.4978 60.7152 31.4832 60.7133 31.4685C60.7114 31.4539 60.7088 31.4364 60.7059 31.4202C60.7031 31.4041 60.7003 31.39 60.697 31.3751C60.6938 31.3602 60.6895 31.3445 60.6853 31.3295C60.681 31.3144 60.6768 31.2995 60.6716 31.2849C60.6664 31.2702 60.6612 31.2553 60.6554 31.2407C60.6497 31.226 60.6441 31.2121 60.6378 31.198C60.6315 31.1839 60.6241 31.1695 60.6174 31.1554C60.6107 31.1413 60.603 31.1281 60.5955 31.1144C60.588 31.1007 60.5798 31.0877 60.5713 31.0746C60.5628 31.0614 60.5536 31.0472 60.5439 31.0335C60.5342 31.0198 60.5265 31.0097 60.5172 30.9979C60.5079 30.9861 60.4956 30.9705 60.4842 30.958C60.4789 30.9519 60.4745 30.9456 60.4691 30.9398L51.8614 21.5819C51.4574 21.1461 50.9672 20.7991 50.422 20.5627C49.8768 20.3264 49.2884 20.206 48.6942 20.209H39.0014V15.5617C39.0014 13.1909 37.0371 11.314 34.666 11.314H30.7949C30.6431 8.26263 29.324 5.38639 27.1107 3.28044C24.8973 1.17449 21.9591 0 18.904 0C15.8488 0 12.9106 1.17449 10.6972 3.28044C8.48388 5.38639 7.16482 8.26263 7.01299 11.314H4.33804C1.96717 11.314 0 13.1909 0 15.5617V43.4621C0 45.8329 1.96717 47.7153 4.33804 47.7153H7.62538C7.85605 49.3378 8.66453 50.8227 9.90228 51.8969C11.14 52.9711 12.7239 53.5626 14.3628 53.5626C16.0017 53.5626 17.5855 52.9711 18.8232 51.8969C20.061 50.8227 20.8695 49.3378 21.1001 47.7153H41.2062C41.4367 49.3378 42.245 50.8227 43.4826 51.897C44.7203 52.9713 46.3041 53.5628 47.9429 53.5628C49.5818 53.5628 51.1656 52.9713 52.4032 51.897C53.6409 50.8227 54.4492 49.3378 54.6796 47.7153H56.422C58.7928 47.7153 60.76 45.8329 60.76 43.4621V31.5879C60.76 31.5798 60.74 31.5721 60.7397 31.5642C60.7392 31.5468 60.7189 31.5296 60.7177 31.5126ZM18.904 1.86199C21.5526 1.865 24.0918 2.91846 25.9646 4.79126C27.8374 6.66407 28.8908 9.20327 28.8938 11.8518C28.8938 11.9606 28.8927 12.0694 28.8875 12.1883C28.8002 14.7778 27.7101 17.2321 25.8474 19.033C23.9847 20.8339 21.4951 21.8407 18.9041 21.8407C16.3131 21.8407 13.8235 20.8339 11.9608 19.033C10.0981 17.2321 9.00799 14.7778 8.92063 12.1883V12.177C8.91571 12.0694 8.91461 11.9606 8.91461 11.8518C8.91762 9.20334 9.97102 6.6642 11.8437 4.79141C13.7165 2.91862 16.2556 1.86511 18.904 1.86199ZM14.3621 51.6934C13.3951 51.6931 12.4499 51.4061 11.646 50.8687C10.8421 50.3313 10.2156 49.5675 9.84571 48.6741C9.47584 47.7806 9.37921 46.7975 9.56802 45.8491C9.75684 44.9007 10.2226 44.0296 10.9065 43.346C11.5904 42.6623 12.4616 42.1967 13.41 42.0082C14.3585 41.8196 15.3415 41.9165 16.2349 42.2867C17.1283 42.6568 17.8918 43.2835 18.429 44.0875C18.9662 44.8916 19.253 45.8369 19.253 46.8039C19.2515 48.1004 18.7357 49.3435 17.8188 50.2602C16.9018 51.1769 15.6587 51.6923 14.3621 51.6934ZM37.0855 31.5879V45.7994H21.1001C20.8695 44.1768 20.061 42.692 18.8232 41.6178C17.5855 40.5435 16.0017 39.9521 14.3628 39.9521C12.7239 39.9521 11.14 40.5435 9.90228 41.6178C8.66453 42.692 7.85605 44.1768 7.62538 45.7994H4.33804C3.02431 45.7994 1.91586 44.7765 1.91586 43.4621V15.5617C1.91586 14.2473 3.02431 13.2299 4.33804 13.2299H7.07498C7.40649 16.1349 8.79538 18.8163 10.9769 20.763C13.1584 22.7098 15.98 23.7857 18.9039 23.7857C21.8277 23.7857 24.6493 22.7098 26.8309 20.763C29.0124 18.8163 30.4013 16.1349 30.7328 13.2299H34.666C35.9806 13.2299 37.0855 14.2473 37.0855 15.5617V31.5879ZM39.0014 22.1249H48.6942C49.0225 22.1196 49.3482 22.1829 49.6506 22.3108C49.953 22.4386 50.2254 22.6281 50.4504 22.8672L57.5842 30.6094H39.0014V22.1249ZM47.9429 51.6934C46.9759 51.6934 46.0305 51.4066 45.2264 50.8694C44.4224 50.3321 43.7957 49.5685 43.4256 48.675C43.0555 47.7816 42.9587 46.7984 43.1473 45.85C43.336 44.9015 43.8017 44.0303 44.4855 43.3464C45.1693 42.6626 46.0405 42.1969 46.989 42.0083C47.9375 41.8196 48.9206 41.9164 49.8141 42.2865C50.7075 42.6566 51.4712 43.2833 52.0084 44.0874C52.5457 44.8915 52.8325 45.8368 52.8325 46.8039C52.831 48.1002 52.3153 49.343 51.3987 50.2597C50.4821 51.1763 49.2393 51.6919 47.9429 51.6934ZM58.8441 43.4621C58.8441 44.7758 57.7357 45.7994 56.422 45.7994H54.6796C54.4492 44.1768 53.6409 42.6919 52.4032 41.6177C51.1656 40.5434 49.5818 39.9519 47.9429 39.9519C46.3041 39.9519 44.7203 40.5434 43.4826 41.6177C42.245 42.6919 41.4367 44.1768 41.2062 45.7994H39.0014V32.5253H58.8441V43.4621Z" fill="white"/>
<path d="M21.904 15.9731C21.9955 16.0598 22.1034 16.1275 22.2213 16.1723C22.3392 16.217 22.4648 16.238 22.5908 16.234C22.7169 16.2299 22.8408 16.201 22.9556 16.1488C23.0704 16.0965 23.1737 16.0221 23.2596 15.9297C23.3454 15.8374 23.4121 15.7289 23.4559 15.6106C23.4996 15.4923 23.5194 15.3666 23.5142 15.2406C23.5091 15.1146 23.479 14.9908 23.4257 14.8765C23.3725 14.7622 23.2971 14.6596 23.204 14.5746L19.8436 11.438V4.75306C19.8436 4.49901 19.7427 4.25535 19.563 4.07571C19.3834 3.89606 19.1397 3.79514 18.8857 3.79514C18.6316 3.79514 18.388 3.89606 18.2083 4.07571C18.0287 4.25535 17.9277 4.49901 17.9277 4.75306V11.8527C17.9295 11.9844 17.9581 12.1144 18.0119 12.2346C18.0657 12.3549 18.1434 12.4628 18.2404 12.552L21.904 15.9731Z" fill="white"/>
</svg>
