<svg width="230" height="53" viewBox="0 0 230 53" fill="none" xmlns="http://www.w3.org/2000/svg">
<path d="M40.7659 20.7004C40.3631 20.7004 39.9604 20.6199 39.6382 20.3783L16.1188 4.75234C15.1522 4.10797 14.9106 2.89978 15.5549 1.93323C16.1993 0.966673 17.4075 0.725025 18.3741 1.36939L41.8935 16.9953C42.8601 17.6397 43.1017 18.8479 42.4573 19.8145C42.0546 20.3783 41.4102 20.7004 40.7659 20.7004Z" fill="#F56060"/>
<path d="M27.633 51.0676C27.2303 51.0676 26.8276 50.9871 26.5054 50.7455L2.98595 35.1195C2.0194 34.4752 1.77776 33.267 2.42213 32.3004C3.0665 31.3339 4.27469 31.0922 5.24124 31.7366L28.7607 47.3625C29.7272 48.0069 29.9689 49.2151 29.3245 50.1817C28.9218 50.7455 28.2774 51.0676 27.633 51.0676Z" fill="#2EA836"/>
<path d="M15.9574 7.16857L13.8632 9.90715L4.84206 3.94673H14.2659C15.0714 3.94673 15.7158 4.34948 16.038 5.07439C16.5212 5.71876 16.4407 6.5242 15.9574 7.16857ZM43.182 45.5085L38.9936 42.6894C37.7854 41.8839 36.0939 42.1256 35.2079 43.3338L34.8857 43.7365C34.6441 44.1392 34.7246 44.6225 35.0468 44.8641L39.9601 48.1665H30.6168C29.8113 48.1665 29.0864 47.7638 28.7642 47.1194C28.3615 46.3945 28.4421 45.5891 28.9253 44.9447L38.2687 32.5406L43.3431 25.7747C44.7124 23.9222 45.0345 21.4252 44.068 19.4116C43.0209 17.3174 40.9267 16.0286 38.5908 16.0286H26.1062C24.0926 16.0286 22.1595 15.4648 20.5485 14.3372L17.3267 12.1624L19.1793 9.74605C20.5485 7.89349 20.8707 5.39655 19.9042 3.38289C18.8571 1.2887 16.7629 0 14.427 0H3.71441C2.10349 0 0.653659 0.966533 0.170383 2.49691C-0.312894 4.02728 0.250931 5.71876 1.62021 6.68531L18.2932 17.8007C20.6291 19.331 23.3676 20.1365 26.1062 20.1365H38.5103C39.3158 20.1365 40.0407 20.5392 40.3629 21.1836C40.7656 21.9085 40.685 22.714 40.2018 23.3584L30.053 36.8901L26.5895 34.6348C24.2537 33.1044 21.5151 32.2989 18.7765 32.2989H6.37243C5.56697 32.2989 4.84206 31.8962 4.51987 31.2519C4.11714 30.5269 4.19769 29.7215 4.68097 29.0771L10.6414 21.1836C11.6079 19.8949 11.2857 18.0423 9.91646 17.1563L9.67482 16.9952C9.35264 16.7536 8.86936 16.8341 8.54717 17.1563L1.45912 26.6607C0.0898414 28.5133 -0.1518 31.0102 0.895298 33.0239C1.9424 35.0375 4.11714 36.3262 6.45298 36.3262H18.696C20.7096 36.3262 22.6427 36.8901 24.2537 38.0177L27.4755 40.1925L25.6229 42.6088C24.2537 44.4614 23.9315 46.9583 24.898 48.972C25.9451 51.0662 28.0393 52.3549 30.3752 52.3549H41.1683C42.7793 52.3549 44.1485 51.3078 44.6318 49.858C45.1956 48.1665 44.5513 46.4751 43.182 45.5085Z" fill="#231F20"/>
<path d="M71.6148 22.9561C71.051 22.9561 70.6483 22.795 70.4066 22.5533C70.0845 22.2311 70.0039 21.8284 70.0039 21.3451V5.39697C70.0039 4.83315 70.165 4.43044 70.4872 4.10826C70.8094 3.78607 71.2121 3.625 71.7759 3.625C72.3398 3.625 72.7425 3.78607 73.0647 4.10826C73.3868 4.43044 73.5479 4.83315 73.5479 5.39697V20.1369H81.1998C82.3275 20.1369 82.8107 20.6202 82.8107 21.5868C82.8107 22.5533 82.2469 23.0366 81.1998 23.0366H71.6148V22.9561Z" fill="#231F20"/>
<path d="M97.629 22.9547C97.0651 22.9547 96.6624 22.7936 96.3402 22.5519C96.018 22.2297 95.9375 21.827 95.9375 21.3437V5.47616C95.9375 4.91233 96.0986 4.5096 96.3402 4.26796C96.6624 3.94578 97.0651 3.86523 97.629 3.86523H107.456C108.019 3.86523 108.422 3.94575 108.664 4.18739C108.986 4.42903 109.066 4.75125 109.066 5.23453C109.066 5.7178 108.905 6.03998 108.664 6.28162C108.342 6.52325 107.939 6.60377 107.456 6.60377H99.401V11.9198H106.972C107.536 11.9198 107.939 12.0004 108.18 12.242C108.503 12.4836 108.583 12.8059 108.583 13.2891C108.583 13.6919 108.422 14.0946 108.18 14.2556C107.858 14.4973 107.456 14.5779 106.972 14.5779H99.401V20.2161H107.456C108.019 20.2161 108.422 20.3772 108.664 20.6188C108.986 20.8604 109.066 21.1826 109.066 21.6659C109.066 22.0686 108.905 22.4713 108.664 22.713C108.342 22.9546 107.939 23.0352 107.456 23.0352H97.629V22.9547Z" fill="#231F20"/>
<path d="M137.506 12.5665C137.909 12.5665 138.231 12.7276 138.553 12.9693C138.795 13.2109 138.956 13.5331 138.956 13.9358V19.8157C138.956 20.6211 138.875 21.2655 138.634 21.5877C138.392 21.9099 137.989 22.2321 137.264 22.3932C136.539 22.6348 135.734 22.8765 134.767 22.957C133.801 23.1181 132.915 23.1986 132.029 23.1986C130.015 23.1986 128.324 22.7959 126.874 21.9904C125.424 21.185 124.296 20.0573 123.491 18.6075C122.766 17.1577 122.363 15.3857 122.363 13.2915C122.363 11.2778 122.766 9.50581 123.491 8.05598C124.296 6.60615 125.343 5.39795 126.793 4.67303C128.243 3.86757 129.854 3.46484 131.787 3.46484C134.365 3.46484 136.459 4.18974 138.07 5.55902C138.311 5.72011 138.472 5.96176 138.553 6.12285C138.634 6.28395 138.714 6.5256 138.714 6.84779C138.714 7.25052 138.634 7.57269 138.392 7.89488C138.15 8.13652 137.909 8.29761 137.586 8.29761C137.425 8.29761 137.184 8.29758 137.023 8.21703C136.862 8.13649 136.7 8.05597 136.459 7.89488C135.653 7.33105 134.928 6.92832 134.204 6.68669C133.479 6.44505 132.754 6.36448 131.868 6.36448C129.854 6.36448 128.404 6.92831 127.357 8.13651C126.391 9.26415 125.827 11.0362 125.827 13.372C125.827 18.1242 127.921 20.46 132.029 20.46C133.237 20.46 134.526 20.299 135.734 19.9768V15.144H132.673C132.27 15.144 131.868 15.0635 131.626 14.8218C131.384 14.5802 131.304 14.258 131.304 13.9358C131.304 13.5331 131.384 13.2109 131.626 13.0498C131.868 12.8082 132.19 12.7276 132.673 12.7276H137.506V12.5665Z" fill="#231F20"/>
<path d="M158.204 15.7069L161.829 7.6523L165.453 15.7069H158.204ZM171.172 20.8618L163.601 4.75262C163.44 4.34989 163.198 4.10825 162.876 3.94715C162.554 3.78606 162.231 3.625 161.829 3.625C161.426 3.625 161.104 3.70552 160.701 3.94715C160.379 4.10825 160.137 4.43043 159.976 4.75262L152.485 20.8618C152.405 21.1035 152.324 21.3451 152.324 21.5868C152.324 21.9895 152.485 22.3922 152.808 22.6339C153.13 22.956 153.532 23.0366 153.935 23.0366C154.257 23.0366 154.499 22.956 154.741 22.795C154.982 22.6339 155.224 22.3922 155.304 22.07L156.915 18.4454H166.5L168.111 22.07C168.272 22.3922 168.433 22.6339 168.675 22.795C168.917 22.956 169.239 23.0366 169.481 23.0366C169.883 23.0366 170.286 22.8755 170.608 22.6339C170.93 22.3117 171.091 21.9895 171.091 21.5868C171.333 21.3451 171.253 21.1035 171.172 20.8618Z" fill="#231F20"/>
<path d="M191.144 23.0366C190.58 23.0366 190.177 22.8755 189.855 22.5533C189.533 22.2311 189.372 21.8284 189.372 21.2646V6.52464H184.459C183.331 6.52464 182.848 6.04137 182.848 5.07482C182.848 4.10827 183.411 3.625 184.459 3.625H197.91C199.037 3.625 199.521 4.10827 199.521 5.07482C199.521 6.04137 198.957 6.52464 197.91 6.52464H192.916V21.2646C192.916 21.8284 192.755 22.2311 192.433 22.5533C192.11 22.9561 191.708 23.0366 191.144 23.0366Z" fill="#231F20"/>
<path d="M223.927 18.527C222.96 19.7352 221.591 20.3795 219.819 20.3795C218.047 20.3795 216.678 19.7352 215.631 18.527C214.664 17.3188 214.181 15.5468 214.181 13.2915C214.181 11.0362 214.664 9.26417 215.631 8.05598C216.597 6.84779 218.047 6.20338 219.819 6.20338C221.591 6.20338 222.96 6.84779 223.927 8.05598C224.893 9.26417 225.457 10.9556 225.457 13.2915C225.457 15.6273 224.974 17.3188 223.927 18.527ZM227.874 8.1365C227.149 6.68668 226.102 5.47849 224.732 4.67303C223.363 3.86757 221.752 3.46484 219.9 3.46484C218.047 3.46484 216.436 3.86757 214.986 4.67303C213.617 5.47849 212.57 6.60613 211.764 8.1365C211.039 9.58633 210.637 11.3583 210.637 13.372C210.637 15.3856 211.039 17.0771 211.764 18.6075C212.489 20.0573 213.536 21.2655 214.906 22.071C216.275 22.8764 217.886 23.2792 219.819 23.2792C221.672 23.2792 223.282 22.8764 224.652 22.071C226.021 21.2655 227.068 20.1379 227.874 18.6075C228.598 17.1577 229.001 15.3856 229.001 13.372C229.001 11.3583 228.598 9.58633 227.874 8.1365Z" fill="#231F20"/>
<path d="M72.904 42.6099H71.0514V39.9519H72.904C73.8705 39.9519 74.4343 40.3546 74.4343 41.2406C74.4343 42.1266 73.9511 42.6099 72.904 42.6099ZM75.0787 39.4686C74.5954 39.0659 73.9511 38.8242 73.065 38.8242H70.2459C70.0043 38.8242 69.8432 38.9048 69.7627 38.9853C69.6821 39.1464 69.6016 39.3075 69.6016 39.4686V46.0734C69.6016 46.315 69.6821 46.4761 69.7627 46.6372C69.9238 46.7983 70.0848 46.7983 70.3265 46.7983C70.5681 46.7983 70.7292 46.7177 70.8903 46.6372C71.0514 46.4761 71.1319 46.315 71.1319 46.0734V43.657H73.1456C74.0316 43.657 74.676 43.4154 75.1592 43.0126C75.6425 42.6099 75.8842 41.9655 75.8842 41.2406C75.8036 40.5157 75.562 39.8714 75.0787 39.4686Z" fill="#231F20"/>
<path d="M83.5368 42.5279H81.6037V40.0309H83.5368C84.1006 40.0309 84.5033 40.1115 84.7449 40.3531C84.9866 40.5142 85.1477 40.8364 85.1477 41.3197C85.1477 41.7224 84.9866 42.0446 84.7449 42.2862C84.5033 42.3668 84.1006 42.5279 83.5368 42.5279ZM86.5975 45.9108L85.5504 44.2999C85.3893 44.0582 85.2282 43.8971 85.0671 43.7361C84.906 43.575 84.7449 43.4944 84.5033 43.4138C85.1477 43.3333 85.631 43.0111 85.9531 42.689C86.2753 42.2862 86.517 41.8029 86.517 41.1586C86.517 40.4337 86.2753 39.7893 85.792 39.3865C85.3088 38.9838 84.6644 38.7422 83.6978 38.7422H80.8787C80.6371 38.7422 80.476 38.8227 80.3955 38.9033C80.3149 39.0644 80.2344 39.2255 80.2344 39.3865V45.9913C80.2344 46.233 80.3149 46.3941 80.3955 46.5552C80.5566 46.7163 80.7176 46.7163 80.9593 46.7163C81.2009 46.7163 81.362 46.6357 81.4426 46.5552C81.6037 46.3941 81.6037 46.233 81.6037 45.9913V43.575H82.7313C82.9729 43.575 83.2146 43.6555 83.3757 43.7361C83.5368 43.8166 83.6979 43.9777 83.8589 44.2193L85.3893 46.4746C85.4699 46.5551 85.5504 46.6357 85.631 46.7163C85.7115 46.7968 85.8726 46.7968 85.9531 46.7968C86.1142 46.7968 86.2753 46.7162 86.4364 46.6357C86.5975 46.5551 86.6781 46.3941 86.6781 46.233C86.6781 46.1524 86.6781 45.9914 86.5975 45.9108Z" fill="#231F20"/>
<path d="M92.1522 46.7978C91.9105 46.7978 91.7494 46.7172 91.6689 46.6367C91.5884 46.5562 91.5078 46.3145 91.5078 46.1534V39.5487C91.5078 39.307 91.5884 39.1459 91.6689 39.0654C91.83 38.9043 91.9911 38.9043 92.1522 38.9043H96.26C96.5017 38.9043 96.6628 38.9849 96.7433 39.0654C96.9044 39.1459 96.9044 39.307 96.9044 39.4681C96.9044 39.6292 96.8239 39.7903 96.7433 39.8709C96.6628 39.9514 96.4211 40.0319 96.26 40.0319H92.8771V42.2067H96.0184C96.26 42.2067 96.4211 42.2872 96.5017 42.3678C96.5822 42.4483 96.6628 42.6094 96.6628 42.7705C96.6628 42.9316 96.5822 43.0927 96.5017 43.1732C96.3406 43.2538 96.1795 43.3343 96.0184 43.3343H92.8771V45.6701H96.26C96.5017 45.6701 96.6628 45.7507 96.7433 45.8312C96.9044 45.9118 96.9044 46.0729 96.9044 46.234C96.9044 46.3951 96.8239 46.5562 96.7433 46.6367C96.6628 46.7172 96.4211 46.7978 96.26 46.7978H92.1522Z" fill="#231F20"/>
<path d="M108.589 38.7426C108.831 38.7426 108.992 38.8232 109.072 38.9843C109.233 39.1454 109.233 39.3065 109.233 39.4676V46.1529C109.233 46.3945 109.153 46.5556 109.072 46.6361C108.911 46.7167 108.831 46.7972 108.589 46.7972C108.428 46.7972 108.267 46.7167 108.106 46.6361C108.025 46.475 107.945 46.314 107.945 46.1529V41.4812L106.012 45.1058C105.931 45.2669 105.85 45.428 105.689 45.5085C105.609 45.5891 105.448 45.5891 105.287 45.5891C105.126 45.5891 105.045 45.5891 104.884 45.5085C104.803 45.428 104.642 45.3474 104.562 45.1058L102.629 41.4812V46.0723C102.629 46.3139 102.548 46.4751 102.467 46.5556C102.387 46.6362 102.226 46.7167 101.984 46.7167C101.823 46.7167 101.662 46.6362 101.501 46.5556C101.42 46.3945 101.34 46.2334 101.34 46.0723V39.387C101.34 39.1454 101.42 38.9843 101.501 38.9037C101.662 38.7426 101.823 38.6621 101.984 38.6621C102.306 38.6621 102.548 38.8232 102.709 39.1454L105.206 43.8976L107.703 39.1454C108.106 38.9037 108.347 38.7426 108.589 38.7426Z" fill="#231F20"/>
<path d="M115.108 46.8773C114.866 46.8773 114.705 46.7968 114.544 46.6357C114.383 46.4746 114.383 46.3135 114.383 46.0719V39.4671C114.383 39.2255 114.463 39.0644 114.544 38.9838C114.705 38.8227 114.866 38.7422 115.108 38.7422C115.349 38.7422 115.51 38.8227 115.672 38.9838C115.833 39.1449 115.913 39.306 115.913 39.4671V46.0719C115.913 46.3135 115.833 46.4746 115.672 46.6357C115.51 46.7968 115.349 46.8773 115.108 46.8773Z" fill="#231F20"/>
<path d="M124.293 46.8783C123.165 46.8783 122.36 46.5561 121.796 45.9923C121.232 45.4285 120.91 44.623 120.91 43.4954V39.3875C120.91 39.1459 120.991 38.9848 121.071 38.9042C121.232 38.7431 121.393 38.6626 121.555 38.6626C121.796 38.6626 121.957 38.7431 122.038 38.9042C122.199 39.0653 122.199 39.2264 122.199 39.3875V43.5759C122.199 44.3008 122.36 44.7841 122.682 45.1063C123.004 45.4285 123.488 45.5895 124.132 45.5895C124.776 45.5895 125.26 45.4284 125.582 45.0257C125.904 44.7035 126.065 44.1397 126.065 43.4954V39.307C126.065 39.0653 126.146 38.9042 126.226 38.8237C126.387 38.6626 126.548 38.582 126.709 38.582C126.951 38.582 127.112 38.6626 127.193 38.8237C127.354 38.9848 127.354 39.1459 127.354 39.307V43.4148C127.354 44.4619 127.032 45.3479 126.468 45.9118C126.226 46.6367 125.34 46.8783 124.293 46.8783Z" fill="#231F20"/>
<path d="M139.757 38.7426C139.999 38.7426 140.16 38.8232 140.24 38.9843C140.401 39.1454 140.401 39.3065 140.401 39.4676V46.1529C140.401 46.3945 140.321 46.5556 140.24 46.6361C140.079 46.7167 139.999 46.7972 139.757 46.7972C139.596 46.7972 139.435 46.7167 139.274 46.6361C139.193 46.475 139.113 46.314 139.113 46.1529V41.4812L137.179 45.1058C137.099 45.2669 137.018 45.428 136.857 45.5085C136.777 45.5891 136.616 45.5891 136.455 45.5891C136.293 45.5891 136.213 45.5891 136.052 45.5085C135.971 45.428 135.81 45.3474 135.73 45.1058L133.797 41.4812V46.0723C133.797 46.3139 133.716 46.4751 133.635 46.5556C133.555 46.6362 133.394 46.7167 133.152 46.7167C132.991 46.7167 132.83 46.6362 132.669 46.5556C132.588 46.3945 132.508 46.2334 132.508 46.0723V39.387C132.508 39.1454 132.588 38.9843 132.669 38.9037C132.83 38.7426 132.991 38.6621 133.152 38.6621C133.474 38.6621 133.716 38.8232 133.877 39.1454L136.374 43.8976L138.871 39.1454C139.274 38.9037 139.435 38.7426 139.757 38.7426Z" fill="#231F20"/>
<path d="M154.897 45.5901H153.528V39.9519H154.897C156.75 39.9519 157.636 40.9184 157.636 42.771C157.636 44.7041 156.75 45.5901 154.897 45.5901ZM158.039 39.8714C157.314 39.1464 156.347 38.8242 154.978 38.8242H152.723C152.481 38.8242 152.32 38.9048 152.239 38.9853C152.159 39.0659 152.078 39.3075 152.078 39.4686V46.0734C152.078 46.315 152.159 46.4761 152.239 46.5567C152.4 46.6372 152.561 46.7178 152.723 46.7178H154.978C156.267 46.7178 157.314 46.3955 158.039 45.6706C158.763 44.9457 159.086 43.9792 159.086 42.6905C159.086 41.5628 158.763 40.5963 158.039 39.8714Z" fill="#231F20"/>
<path d="M164.644 46.7978C164.403 46.7978 164.242 46.7172 164.161 46.6367C164.081 46.5562 164 46.3145 164 46.1534V39.5487C164 39.307 164.081 39.1459 164.161 39.0654C164.322 38.9043 164.483 38.9043 164.644 38.9043H168.752C168.994 38.9043 169.155 38.9849 169.235 39.0654C169.316 39.1459 169.397 39.307 169.397 39.4681C169.397 39.6292 169.316 39.7903 169.235 39.8709C169.155 39.9514 168.913 40.0319 168.752 40.0319H165.369V42.2067H168.511C168.752 42.2067 168.913 42.2872 168.994 42.3678C169.074 42.4483 169.155 42.6094 169.155 42.7705C169.155 42.9316 169.074 43.0927 168.994 43.1732C168.913 43.2538 168.672 43.3343 168.511 43.3343H165.369V45.6701H168.752C168.994 45.6701 169.155 45.7507 169.235 45.8312C169.316 45.9118 169.397 46.0729 169.397 46.234C169.397 46.3951 169.316 46.5562 169.235 46.6367C169.155 46.7172 168.913 46.7978 168.752 46.7978H164.644Z" fill="#231F20"/>
<path d="M177.536 46.8778C176.73 46.8778 176.086 46.7167 175.522 46.3945C174.958 46.0723 174.475 45.5891 174.233 44.9447C173.992 44.3003 173.75 43.5754 173.75 42.7699C173.75 41.9645 173.911 41.2396 174.233 40.5952C174.555 39.9508 174.958 39.4676 175.522 39.1454C176.086 38.8232 176.811 38.6621 177.536 38.6621C178.019 38.6621 178.502 38.7426 178.905 38.9037C179.308 39.0648 179.71 39.2259 180.033 39.5481C180.113 39.6286 180.194 39.7092 180.274 39.7897C180.274 39.8703 180.355 39.9508 180.355 40.1119C180.355 40.273 180.274 40.4341 180.194 40.5147C180.113 40.5952 180.033 40.6758 179.871 40.6758C179.71 40.6758 179.549 40.5952 179.388 40.5147C179.066 40.273 178.744 40.1119 178.502 40.0314C178.261 39.9508 177.938 39.8703 177.536 39.8703C176.73 39.8703 176.166 40.1119 175.764 40.5952C175.361 41.0785 175.2 41.8034 175.2 42.7699C175.2 43.7365 175.361 44.4614 175.764 44.9447C176.166 45.428 176.73 45.6696 177.536 45.6696C177.858 45.6696 178.18 45.5891 178.422 45.5085C178.663 45.428 178.985 45.2669 179.388 45.0252C179.469 44.9447 179.549 44.9447 179.63 44.9447C179.71 44.9447 179.791 44.8641 179.871 44.8641C180.033 44.8641 180.113 44.9447 180.194 45.0252C180.274 45.1058 180.355 45.2669 180.355 45.4279C180.355 45.5085 180.355 45.6696 180.274 45.7502C180.274 45.8307 180.194 45.9112 180.033 45.9918C179.71 46.2334 179.308 46.475 178.905 46.6361C178.502 46.8778 178.019 46.8778 177.536 46.8778Z" fill="#231F20"/>
<path d="M190.18 45.0248C189.778 45.508 189.214 45.7497 188.489 45.7497C187.764 45.7497 187.2 45.508 186.797 45.0248C186.395 44.5415 186.153 43.8166 186.153 42.85C186.153 41.8835 186.395 41.1586 186.797 40.6753C187.2 40.192 187.764 39.9504 188.489 39.9504C189.214 39.9504 189.778 40.192 190.18 40.6753C190.583 41.1586 190.825 41.8835 190.825 42.85C190.825 43.8166 190.583 44.4609 190.18 45.0248ZM191.791 40.6753C191.469 40.0309 191.066 39.5476 190.502 39.2254C189.939 38.9033 189.294 38.7422 188.489 38.7422C187.683 38.7422 187.039 38.9033 186.475 39.2254C185.911 39.5476 185.428 40.0309 185.186 40.6753C184.864 41.3197 184.703 42.0446 184.703 42.85C184.703 43.6555 184.864 44.3804 185.186 45.0248C185.509 45.6691 185.911 46.1524 186.475 46.4746C187.039 46.7968 187.683 46.9579 188.489 46.9579C189.294 46.9579 189.939 46.7968 190.502 46.4746C191.066 46.1524 191.55 45.6691 191.791 45.0248C192.113 44.3804 192.274 43.6555 192.274 42.85C192.274 41.964 192.113 41.2391 191.791 40.6753Z" fill="#231F20"/>
<path d="M200.408 42.5279H198.475V40.0309H200.408C200.972 40.0309 201.374 40.1115 201.616 40.3531C201.858 40.5142 202.019 40.8364 202.019 41.3197C202.019 41.7224 201.858 42.0446 201.616 42.2862C201.374 42.3668 200.972 42.5279 200.408 42.5279ZM203.469 45.9108L202.421 44.2999C202.26 44.0582 202.099 43.8971 201.938 43.7361C201.777 43.575 201.616 43.4944 201.374 43.4138C202.019 43.3333 202.502 43.0111 202.824 42.689C203.146 42.2862 203.388 41.8029 203.388 41.1586C203.388 40.4337 203.146 39.7893 202.663 39.3865C202.18 38.9838 201.535 38.7422 200.569 38.7422H197.75C197.508 38.7422 197.347 38.8227 197.267 38.9033C197.186 39.0644 197.105 39.2255 197.105 39.3865V45.9913C197.105 46.233 197.186 46.3941 197.267 46.5552C197.428 46.7163 197.589 46.7163 197.83 46.7163C198.072 46.7163 198.233 46.6357 198.314 46.5552C198.475 46.3941 198.475 46.233 198.475 45.9913V43.575H199.602C199.844 43.575 200.086 43.6555 200.247 43.7361C200.408 43.8166 200.569 43.9777 200.73 44.2193L202.26 46.4746C202.341 46.5551 202.421 46.6357 202.502 46.7163C202.583 46.7968 202.744 46.7968 202.824 46.7968C202.985 46.7968 203.146 46.7162 203.307 46.6357C203.469 46.5551 203.549 46.3941 203.549 46.233C203.63 46.1524 203.549 45.9914 203.469 45.9108Z" fill="#231F20"/>
</svg>
