<svg width="54" height="54" viewBox="0 0 54 54" fill="none" xmlns="http://www.w3.org/2000/svg">
<g clip-path="url(#clip0)">
<path d="M46.0919 7.90872C40.9922 2.8091 34.2118 0.000676366 26.9999 0.000676366C22.1478 0.000676366 17.4364 1.28877 13.2928 3.73511L10.0216 0.464001C9.56918 0.0114342 8.88869 -0.123882 8.29754 0.121016C7.70639 0.365915 7.3209 0.942723 7.3209 1.5826V9.1523C7.3209 10.026 8.02923 10.7343 8.90293 10.7343H16.4727C17.1126 10.7343 17.6895 10.349 17.9343 9.7577C18.1791 9.16654 18.0438 8.48606 17.5913 8.0336L15.6135 6.05574C19.0937 4.15973 22.9921 3.16463 27 3.16463C40.1431 3.16463 50.8359 13.8574 50.8359 27.0006C50.8359 40.1438 40.1431 50.8365 27 50.8365C13.8568 50.8365 3.16406 40.1438 3.16406 27.0006C3.16406 26.1269 2.45573 25.4185 1.58203 25.4185C0.708328 25.4185 0 26.1269 0 27.0006C0 34.2125 2.80842 40.9928 7.90805 46.0923C13.0078 51.192 19.788 54.0005 26.9999 54.0005C34.2117 54.0005 40.9921 51.1919 46.0919 46.0923C51.1916 40.9927 54 34.2124 54 27.0006C54 19.7887 51.1915 13.0083 46.0919 7.90872Z" fill="white"/>
<path d="M37.1672 25.4182H28.582V16.833C28.582 15.9592 27.8737 15.251 27 15.251C26.1263 15.251 25.418 15.9593 25.418 16.833V27.0002C25.418 27.8739 26.1263 28.5823 27 28.5823H37.1672C38.0409 28.5823 38.7492 27.8739 38.7492 27.0002C38.7492 26.1265 38.0409 25.4182 37.1672 25.4182Z" fill="white"/>
</g>
<defs>
<clipPath id="clip0">
<rect width="54" height="54" fill="white"/>
</clipPath>
</defs>
</svg>
