<svg width="83" height="56" viewBox="0 0 83 56" fill="none" xmlns="http://www.w3.org/2000/svg">
<path d="M56.5202 53.7209L48.9455 46.1462C48.6579 45.8586 48.1923 45.8591 47.9052 46.1462C47.6181 46.4333 47.6176 46.8989 47.9052 47.1865L55.4798 54.7612C55.7675 55.0488 56.2331 55.0482 56.5202 54.7612C56.8072 54.4741 56.8078 54.0085 56.5202 53.7209Z" fill="white" stroke="white" stroke-width="0.4"/>
<path d="M64.0948 47.1865C64.3819 46.8995 64.3824 46.4339 64.0948 46.1462C63.8072 45.8586 63.3416 45.8591 63.0545 46.1462L55.4798 53.7209C55.1928 54.0079 55.1922 54.4735 55.4798 54.7612C55.7675 55.0488 56.2331 55.0482 56.5202 54.7612L64.0948 47.1865Z" fill="white" stroke="white" stroke-width="0.4"/>
<path d="M56.7355 36.0617C56.7355 35.8589 56.6532 35.6746 56.5202 35.5415C56.3871 35.4085 56.2028 35.3262 56 35.3262C55.5934 35.3262 55.2645 35.6551 55.2645 36.0617L55.2645 54.2408C55.2645 54.6474 55.5934 54.9763 56 54.9763C56.4066 54.9763 56.7355 54.6474 56.7355 54.2408L56.7355 36.0617Z" fill="white" stroke="white" stroke-width="0.4"/>
<path d="M64.0963 8.81278L56.5217 1.23814C56.2341 0.950502 55.7685 0.951065 55.4814 1.23814C55.1943 1.52521 55.1937 1.99081 55.4814 2.27844L63.056 9.85308C63.3437 10.1407 63.8093 10.1402 64.0963 9.85308C64.3834 9.56601 64.384 9.10041 64.0963 8.81278Z" fill="white" stroke="white" stroke-width="0.4"/>
<path d="M56.5186 2.27844C56.8057 1.99137 56.8063 1.52577 56.5186 1.23814C56.231 0.950502 55.7654 0.951065 55.4783 1.23814L47.9037 8.81278C47.6166 9.09985 47.616 9.56545 47.9037 9.85308C48.1913 10.1407 48.6569 10.1402 48.944 9.85308L56.5186 2.27844Z" fill="white" stroke="white" stroke-width="0.4"/>
<path d="M56.7355 1.76032C56.7355 1.55757 56.6532 1.37319 56.5202 1.24017C56.3871 1.10715 56.2028 1.0248 56 1.0248C55.5934 1.0248 55.2645 1.3537 55.2645 1.76033L55.2645 19.9395C55.2645 20.3461 55.5934 20.675 56 20.675C56.4066 20.675 56.7355 20.3461 56.7355 19.9395L56.7355 1.76032Z" fill="white" stroke="white" stroke-width="0.4"/>
<mask id="path-7-inside-1" fill="white">
<rect y="1" width="37" height="54" rx="2"/>
</mask>
<rect y="1" width="37" height="54" rx="2" stroke="white" stroke-width="4.6" mask="url(#path-7-inside-1)"/>
<line x1="18.15" y1="3" x2="18.15" y2="53" stroke="white" stroke-width="2.3"/>
<line y1="17.85" x2="36" y2="17.85" stroke="white" stroke-width="2.3"/>
<line y1="35.85" x2="36" y2="35.85" stroke="white" stroke-width="2.3"/>
</svg>
