<svg id="Layer_1" data-name="Layer 1" xmlns="http://www.w3.org/2000/svg" viewBox="0 0 82 60"><defs><style>.cls-1{fill:none;stroke:#231f20;stroke-width:1.2px;}</style></defs><path class="cls-1" d="M81.07,10.65c0,5.34-17.87,9.66-39.93,9.66S1.21,16,1.21,10.65m79.86,0C81.07,5.32,63.2,1,41.14,1S1.21,5.32,1.21,10.65m79.86,0c1.64,8.35-18,13.17-40,13.17S-1.29,20.31,1.21,10.65M39,23.84V51.32a.67.67,0,0,0,.34.58l.22.13A3.34,3.34,0,0,0,43,51.91a.68.68,0,0,0,.29-.56V23.84M38.71,49.5c-4.5,0-12,1.82-12,4.6s7.4,4.82,14.43,4.82,14.57-2.05,14.57-4.82-7.5-4.6-12-4.6"/></svg>