<svg id="Layer_1" data-name="Layer 1" xmlns="http://www.w3.org/2000/svg" viewBox="0 0 207 216"><defs><style>.cls-1{fill:#ebebeb;}</style></defs><path class="cls-1" d="M202.5,45H141.11c10.52-3.74,20.49-8.8,25.72-15.47l.09-.12A18,18,0,0,0,153,0a17.43,17.43,0,0,0-3.36.32C134.48,2.89,113.25,19,103.51,36.62,93.77,19,72.55,2.89,57.49.34A18.2,18.2,0,0,0,54,0,18,18,0,0,0,40.08,29.41l.09.11C45.39,36.2,55.38,41.26,65.9,45H4.5A4.5,4.5,0,0,0,0,49.5v36A4.51,4.51,0,0,0,4.5,90H9V211.5a4.5,4.5,0,0,0,4.5,4.5h180a4.51,4.51,0,0,0,4.5-4.5V90h4.5a4.51,4.51,0,0,0,4.5-4.5v-36A4.5,4.5,0,0,0,202.5,45ZM151.26,9.17A9,9,0,0,1,162,18a8.94,8.94,0,0,1-1.87,5.5,3.88,3.88,0,0,0-.26.31c-7.79,10.28-34.24,17-49.92,19.93C117.28,27.79,137.66,11.47,151.26,9.17ZM47.13,23.81a2.78,2.78,0,0,0-.26-.32A8.87,8.87,0,0,1,45,18a9,9,0,0,1,9-9,9.88,9.88,0,0,1,1.87.19C69.36,11.48,89.73,27.8,97.05,43.73,81.38,40.84,54.93,34.1,47.13,23.81ZM9,54H99V81H9Zm9,36H99V207H18ZM189,207H108V90h81Zm9-126H108V54h90Z"/></svg>